<svg width="225" height="52" viewBox="0 0 225 52" fill="none" xmlns="http://www.w3.org/2000/svg">
<g filter="url(#filter0_dd_19_16480)">
<rect x="4" y="4" width="217" height="44" rx="8" fill="white"/>
<g clip-path="url(#clip0_19_16480)">
<path d="M43.7663 26.2763C43.7663 25.4605 43.7001 24.6404 43.559 23.8379H32.2402V28.4589H38.722C38.453 29.9492 37.5888 31.2676 36.3233 32.1054V35.1037H40.1903C42.4611 33.0137 43.7663 29.9272 43.7663 26.2763Z" fill="#4285F4"/>
<path d="M32.2401 38.0013C35.4766 38.0013 38.2059 36.9387 40.1945 35.1044L36.3276 32.106C35.2517 32.838 33.8627 33.2525 32.2445 33.2525C29.1139 33.2525 26.4595 31.1404 25.507 28.3008H21.5166V31.3917C23.5537 35.4439 27.7029 38.0013 32.2401 38.0013Z" fill="#34A853"/>
<path d="M25.5028 28.3007C25.0001 26.8103 25.0001 25.1965 25.5028 23.7062V20.6152H21.5167C19.8147 24.006 19.8147 28.0009 21.5167 31.3916L25.5028 28.3007Z" fill="#FBBC04"/>
<path d="M32.2401 18.7497C33.9509 18.7232 35.6044 19.367 36.8434 20.5487L40.2695 17.1226C38.1001 15.0855 35.2208 13.9655 32.2401 14.0008C27.7029 14.0008 23.5537 16.5582 21.5166 20.6148L25.5026 23.7058C26.4506 20.8617 29.1095 18.7497 32.2401 18.7497Z" fill="#EA4335"/>
</g>
<path d="M63.4716 23.5625C63.4186 23.0663 63.1951 22.6799 62.8011 22.4034C62.411 22.1269 61.9034 21.9886 61.2784 21.9886C60.839 21.9886 60.4621 22.0549 60.1477 22.1875C59.8333 22.3201 59.5928 22.5 59.4261 22.7273C59.2595 22.9545 59.1742 23.214 59.1705 23.5057C59.1705 23.7481 59.2254 23.9583 59.3352 24.1364C59.4489 24.3144 59.6023 24.4659 59.7955 24.5909C59.9886 24.7121 60.2027 24.8144 60.4375 24.8977C60.6723 24.9811 60.9091 25.0511 61.1477 25.108L62.2386 25.3807C62.678 25.483 63.1004 25.6212 63.5057 25.7955C63.9148 25.9697 64.2803 26.1894 64.6023 26.4545C64.928 26.7197 65.1856 27.0398 65.375 27.4148C65.5644 27.7898 65.6591 28.2292 65.6591 28.733C65.6591 29.4148 65.4848 30.0152 65.1364 30.5341C64.7879 31.0492 64.2841 31.4527 63.625 31.7443C62.9697 32.0322 62.1761 32.1761 61.2443 32.1761C60.339 32.1761 59.553 32.036 58.8864 31.7557C58.2235 31.4754 57.7045 31.0663 57.3295 30.5284C56.9583 29.9905 56.7576 29.3352 56.7273 28.5625H58.8011C58.8314 28.9678 58.9564 29.3049 59.1761 29.5739C59.3958 29.8428 59.6818 30.0436 60.0341 30.1761C60.3902 30.3087 60.7879 30.375 61.2273 30.375C61.6856 30.375 62.0871 30.3068 62.4318 30.1705C62.7803 30.0303 63.053 29.8371 63.25 29.5909C63.447 29.3409 63.5473 29.0492 63.5511 28.7159C63.5473 28.4129 63.4583 28.1629 63.2841 27.9659C63.1098 27.7652 62.8655 27.5985 62.5511 27.4659C62.2405 27.3295 61.8769 27.2083 61.4602 27.1023L60.1364 26.7614C59.178 26.5152 58.4205 26.142 57.8636 25.642C57.3106 25.1383 57.0341 24.4697 57.0341 23.6364C57.0341 22.9508 57.2197 22.3504 57.5909 21.8352C57.9659 21.3201 58.4754 20.9205 59.1193 20.6364C59.7633 20.3485 60.4924 20.2045 61.3068 20.2045C62.1326 20.2045 62.8561 20.3485 63.4773 20.6364C64.1023 20.9205 64.5928 21.3163 64.9489 21.8239C65.3049 22.3277 65.4886 22.9072 65.5 23.5625H63.4716ZM67.4474 32V23.2727H69.5043V32H67.4474ZM68.4815 22.0341C68.1558 22.0341 67.8755 21.9261 67.6406 21.7102C67.4058 21.4905 67.2884 21.2273 67.2884 20.9205C67.2884 20.6098 67.4058 20.3466 67.6406 20.1307C67.8755 19.911 68.1558 19.8011 68.4815 19.8011C68.8111 19.8011 69.0914 19.911 69.3224 20.1307C69.5573 20.3466 69.6747 20.6098 69.6747 20.9205C69.6747 21.2273 69.5573 21.4905 69.3224 21.7102C69.0914 21.9261 68.8111 22.0341 68.4815 22.0341ZM75.4148 35.4545C74.6761 35.4545 74.0417 35.3542 73.5114 35.1534C72.9811 34.9564 72.5549 34.6913 72.233 34.358C71.911 34.0246 71.6875 33.6553 71.5625 33.25L73.4148 32.8011C73.4981 32.9716 73.6193 33.1402 73.7784 33.3068C73.9375 33.4773 74.1515 33.6174 74.4205 33.7273C74.6932 33.8409 75.036 33.8977 75.4489 33.8977C76.0322 33.8977 76.5152 33.7557 76.8977 33.4716C77.2803 33.1913 77.4716 32.7292 77.4716 32.0852V30.4318H77.3693C77.2633 30.6439 77.108 30.8617 76.9034 31.0852C76.7027 31.3087 76.4356 31.4962 76.1023 31.6477C75.7727 31.7992 75.358 31.875 74.858 31.875C74.1875 31.875 73.5795 31.7178 73.0341 31.4034C72.4924 31.0852 72.0606 30.6117 71.7386 29.983C71.4205 29.3504 71.2614 28.5587 71.2614 27.608C71.2614 26.6496 71.4205 25.8409 71.7386 25.1818C72.0606 24.5189 72.4943 24.017 73.0398 23.6761C73.5852 23.3314 74.1932 23.1591 74.8636 23.1591C75.375 23.1591 75.7955 23.2462 76.125 23.4205C76.4583 23.5909 76.7235 23.7973 76.9205 24.0398C77.1174 24.2784 77.267 24.5038 77.3693 24.7159H77.483V23.2727H79.5114V32.142C79.5114 32.8883 79.3333 33.5057 78.9773 33.9943C78.6212 34.483 78.1345 34.8485 77.517 35.0909C76.8996 35.3333 76.1989 35.4545 75.4148 35.4545ZM75.4318 30.2614C75.8674 30.2614 76.2386 30.1553 76.5455 29.9432C76.8523 29.7311 77.0852 29.4261 77.2443 29.0284C77.4034 28.6307 77.483 28.1534 77.483 27.5966C77.483 27.0473 77.4034 26.5663 77.2443 26.1534C77.089 25.7405 76.858 25.4205 76.5511 25.1932C76.2481 24.9621 75.875 24.8466 75.4318 24.8466C74.9735 24.8466 74.5909 24.9659 74.2841 25.2045C73.9773 25.4432 73.7462 25.7708 73.5909 26.1875C73.4356 26.6004 73.358 27.0701 73.358 27.5966C73.358 28.1307 73.4356 28.5985 73.5909 29C73.75 29.3977 73.983 29.7083 74.2898 29.9318C74.6004 30.1515 74.9811 30.2614 75.4318 30.2614ZM83.6761 26.8864V32H81.6193V23.2727H83.5852V24.7557H83.6875C83.8883 24.267 84.2083 23.8788 84.6477 23.5909C85.0909 23.303 85.6383 23.1591 86.2898 23.1591C86.892 23.1591 87.4167 23.2879 87.8636 23.5455C88.3144 23.803 88.6629 24.1761 88.9091 24.6648C89.1591 25.1534 89.2822 25.7462 89.2784 26.4432V32H87.2216V26.7614C87.2216 26.178 87.0701 25.7216 86.767 25.392C86.4678 25.0625 86.053 24.8977 85.5227 24.8977C85.1629 24.8977 84.8428 24.9773 84.5625 25.1364C84.286 25.2917 84.0682 25.517 83.9091 25.8125C83.7538 26.108 83.6761 26.4659 83.6761 26.8864ZM95.3381 32V23.2727H97.3949V32H95.3381ZM96.3722 22.0341C96.0464 22.0341 95.7661 21.9261 95.5312 21.7102C95.2964 21.4905 95.179 21.2273 95.179 20.9205C95.179 20.6098 95.2964 20.3466 95.5312 20.1307C95.7661 19.911 96.0464 19.8011 96.3722 19.8011C96.7017 19.8011 96.982 19.911 97.2131 20.1307C97.4479 20.3466 97.5653 20.6098 97.5653 20.9205C97.5653 21.2273 97.4479 21.4905 97.2131 21.7102C96.982 21.9261 96.7017 22.0341 96.3722 22.0341ZM101.567 26.8864V32H99.5099V23.2727H101.476V24.7557H101.578C101.779 24.267 102.099 23.8788 102.538 23.5909C102.982 23.303 103.529 23.1591 104.18 23.1591C104.783 23.1591 105.307 23.2879 105.754 23.5455C106.205 23.803 106.554 24.1761 106.8 24.6648C107.05 25.1534 107.173 25.7462 107.169 26.4432V32H105.112V26.7614C105.112 26.178 104.961 25.7216 104.658 25.392C104.358 25.0625 103.944 24.8977 103.413 24.8977C103.054 24.8977 102.733 24.9773 102.453 25.1364C102.177 25.2917 101.959 25.517 101.8 25.8125C101.644 26.108 101.567 26.4659 101.567 26.8864ZM115.03 32L112.564 23.2727H114.661L116.195 29.4091H116.274L117.842 23.2727H119.916L121.484 29.375H121.57L123.081 23.2727H125.183L122.712 32H120.57L118.933 26.1023H118.814L117.178 32H115.03ZM126.619 32V23.2727H128.676V32H126.619ZM127.653 22.0341C127.328 22.0341 127.047 21.9261 126.812 21.7102C126.578 21.4905 126.46 21.2273 126.46 20.9205C126.46 20.6098 126.578 20.3466 126.812 20.1307C127.047 19.911 127.328 19.8011 127.653 19.8011C127.983 19.8011 128.263 19.911 128.494 20.1307C128.729 20.3466 128.847 20.6098 128.847 20.9205C128.847 21.2273 128.729 21.4905 128.494 21.7102C128.263 21.9261 127.983 22.0341 127.653 22.0341ZM135.149 23.2727V24.8636H130.132V23.2727H135.149ZM131.371 21.1818H133.428V29.375C133.428 29.6515 133.469 29.8636 133.553 30.0114C133.64 30.1553 133.753 30.2538 133.893 30.3068C134.034 30.3598 134.189 30.3864 134.359 30.3864C134.488 30.3864 134.606 30.3769 134.712 30.358C134.821 30.339 134.905 30.322 134.962 30.3068L135.308 31.9148C135.198 31.9527 135.041 31.9943 134.837 32.0398C134.636 32.0852 134.39 32.1117 134.098 32.1193C133.583 32.1345 133.119 32.0568 132.706 31.8864C132.293 31.7121 131.965 31.4432 131.723 31.0795C131.484 30.7159 131.367 30.2614 131.371 29.7159V21.1818ZM139.114 26.8864V32H137.057V20.3636H139.068V24.7557H139.17C139.375 24.2633 139.691 23.875 140.119 23.5909C140.551 23.303 141.1 23.1591 141.767 23.1591C142.373 23.1591 142.902 23.286 143.352 23.5398C143.803 23.7936 144.152 24.1648 144.398 24.6534C144.648 25.142 144.773 25.7386 144.773 26.4432V32H142.716V26.7614C142.716 26.1742 142.564 25.7178 142.261 25.392C141.962 25.0625 141.542 24.8977 141 24.8977C140.636 24.8977 140.311 24.9773 140.023 25.1364C139.739 25.2917 139.515 25.517 139.352 25.8125C139.193 26.108 139.114 26.4659 139.114 26.8864ZM158.724 24.0795C158.63 23.7727 158.499 23.4981 158.332 23.2557C158.17 23.0095 157.973 22.7992 157.741 22.625C157.514 22.4508 157.253 22.3201 156.957 22.233C156.662 22.142 156.34 22.0966 155.991 22.0966C155.366 22.0966 154.81 22.2538 154.321 22.5682C153.832 22.8826 153.448 23.3447 153.168 23.9545C152.891 24.5606 152.753 25.2992 152.753 26.1705C152.753 27.0492 152.891 27.7936 153.168 28.4034C153.444 29.0133 153.829 29.4773 154.321 29.7955C154.813 30.1098 155.385 30.267 156.037 30.267C156.628 30.267 157.139 30.1534 157.571 29.9261C158.007 29.6989 158.342 29.3769 158.577 28.9602C158.812 28.5398 158.929 28.0473 158.929 27.483L159.406 27.5568H156.247V25.9091H160.969V27.3068C160.969 28.303 160.757 29.1648 160.332 29.892C159.908 30.6193 159.325 31.1799 158.582 31.5739C157.84 31.964 156.988 32.1591 156.026 32.1591C154.954 32.1591 154.012 31.9186 153.202 31.4375C152.395 30.9527 151.764 30.2652 151.31 29.375C150.859 28.4811 150.634 27.4205 150.634 26.1932C150.634 25.2538 150.766 24.4148 151.031 23.6761C151.3 22.9375 151.675 22.3106 152.156 21.7955C152.637 21.2765 153.202 20.8826 153.849 20.6136C154.497 20.3409 155.202 20.2045 155.963 20.2045C156.607 20.2045 157.207 20.2992 157.764 20.4886C158.321 20.6742 158.815 20.9394 159.247 21.2841C159.683 21.6288 160.041 22.0379 160.321 22.5114C160.601 22.9848 160.785 23.5076 160.872 24.0795H158.724ZM166.723 32.1705C165.871 32.1705 165.132 31.983 164.507 31.608C163.882 31.233 163.397 30.7083 163.053 30.0341C162.712 29.3598 162.541 28.572 162.541 27.6705C162.541 26.7689 162.712 25.9792 163.053 25.3011C163.397 24.6231 163.882 24.0966 164.507 23.7216C165.132 23.3466 165.871 23.1591 166.723 23.1591C167.575 23.1591 168.314 23.3466 168.939 23.7216C169.564 24.0966 170.047 24.6231 170.388 25.3011C170.732 25.9792 170.905 26.7689 170.905 27.6705C170.905 28.572 170.732 29.3598 170.388 30.0341C170.047 30.7083 169.564 31.233 168.939 31.608C168.314 31.983 167.575 32.1705 166.723 32.1705ZM166.734 30.5227C167.196 30.5227 167.583 30.3958 167.893 30.142C168.204 29.8845 168.435 29.5398 168.587 29.108C168.742 28.6761 168.82 28.1951 168.82 27.6648C168.82 27.1307 168.742 26.6477 168.587 26.2159C168.435 25.7803 168.204 25.4337 167.893 25.1761C167.583 24.9186 167.196 24.7898 166.734 24.7898C166.261 24.7898 165.867 24.9186 165.553 25.1761C165.242 25.4337 165.009 25.7803 164.854 26.2159C164.702 26.6477 164.626 27.1307 164.626 27.6648C164.626 28.1951 164.702 28.6761 164.854 29.108C165.009 29.5398 165.242 29.8845 165.553 30.142C165.867 30.3958 166.261 30.5227 166.734 30.5227ZM176.457 32.1705C175.605 32.1705 174.866 31.983 174.241 31.608C173.616 31.233 173.132 30.7083 172.787 30.0341C172.446 29.3598 172.276 28.572 172.276 27.6705C172.276 26.7689 172.446 25.9792 172.787 25.3011C173.132 24.6231 173.616 24.0966 174.241 23.7216C174.866 23.3466 175.605 23.1591 176.457 23.1591C177.31 23.1591 178.048 23.3466 178.673 23.7216C179.298 24.0966 179.781 24.6231 180.122 25.3011C180.467 25.9792 180.639 26.7689 180.639 27.6705C180.639 28.572 180.467 29.3598 180.122 30.0341C179.781 30.7083 179.298 31.233 178.673 31.608C178.048 31.983 177.31 32.1705 176.457 32.1705ZM176.469 30.5227C176.931 30.5227 177.317 30.3958 177.628 30.142C177.938 29.8845 178.17 29.5398 178.321 29.108C178.476 28.6761 178.554 28.1951 178.554 27.6648C178.554 27.1307 178.476 26.6477 178.321 26.2159C178.17 25.7803 177.938 25.4337 177.628 25.1761C177.317 24.9186 176.931 24.7898 176.469 24.7898C175.995 24.7898 175.601 24.9186 175.287 25.1761C174.976 25.4337 174.743 25.7803 174.588 26.2159C174.437 26.6477 174.361 27.1307 174.361 27.6648C174.361 28.1951 174.437 28.6761 174.588 29.108C174.743 29.5398 174.976 29.8845 175.287 30.142C175.601 30.3958 175.995 30.5227 176.469 30.5227ZM186.18 35.4545C185.442 35.4545 184.807 35.3542 184.277 35.1534C183.747 34.9564 183.321 34.6913 182.999 34.358C182.677 34.0246 182.453 33.6553 182.328 33.25L184.18 32.8011C184.264 32.9716 184.385 33.1402 184.544 33.3068C184.703 33.4773 184.917 33.6174 185.186 33.7273C185.459 33.8409 185.802 33.8977 186.214 33.8977C186.798 33.8977 187.281 33.7557 187.663 33.4716C188.046 33.1913 188.237 32.7292 188.237 32.0852V30.4318H188.135C188.029 30.6439 187.874 30.8617 187.669 31.0852C187.468 31.3087 187.201 31.4962 186.868 31.6477C186.538 31.7992 186.124 31.875 185.624 31.875C184.953 31.875 184.345 31.7178 183.8 31.4034C183.258 31.0852 182.826 30.6117 182.504 29.983C182.186 29.3504 182.027 28.5587 182.027 27.608C182.027 26.6496 182.186 25.8409 182.504 25.1818C182.826 24.5189 183.26 24.017 183.805 23.6761C184.351 23.3314 184.959 23.1591 185.629 23.1591C186.141 23.1591 186.561 23.2462 186.891 23.4205C187.224 23.5909 187.489 23.7973 187.686 24.0398C187.883 24.2784 188.033 24.5038 188.135 24.7159H188.249V23.2727H190.277V32.142C190.277 32.8883 190.099 33.5057 189.743 33.9943C189.387 34.483 188.9 34.8485 188.283 35.0909C187.665 35.3333 186.964 35.4545 186.18 35.4545ZM186.197 30.2614C186.633 30.2614 187.004 30.1553 187.311 29.9432C187.618 29.7311 187.851 29.4261 188.01 29.0284C188.169 28.6307 188.249 28.1534 188.249 27.5966C188.249 27.0473 188.169 26.5663 188.01 26.1534C187.855 25.7405 187.624 25.4205 187.317 25.1932C187.014 24.9621 186.641 24.8466 186.197 24.8466C185.739 24.8466 185.357 24.9659 185.05 25.2045C184.743 25.4432 184.512 25.7708 184.357 26.1875C184.201 26.6004 184.124 27.0701 184.124 27.5966C184.124 28.1307 184.201 28.5985 184.357 29C184.516 29.3977 184.749 29.7083 185.055 29.9318C185.366 30.1515 185.747 30.2614 186.197 30.2614ZM194.442 20.3636V32H192.385V20.3636H194.442ZM200.42 32.1705C199.545 32.1705 198.79 31.9886 198.153 31.625C197.521 31.2576 197.034 30.7386 196.693 30.0682C196.352 29.3939 196.182 28.6004 196.182 27.6875C196.182 26.7898 196.352 26.0019 196.693 25.3239C197.038 24.642 197.519 24.1117 198.136 23.733C198.754 23.3504 199.479 23.1591 200.312 23.1591C200.85 23.1591 201.358 23.2462 201.835 23.4205C202.316 23.5909 202.741 23.8561 203.108 24.2159C203.479 24.5758 203.771 25.0341 203.983 25.5909C204.195 26.1439 204.301 26.803 204.301 27.5682V28.1989H197.148V26.8125H202.33C202.326 26.4186 202.241 26.0682 202.074 25.7614C201.907 25.4508 201.674 25.2064 201.375 25.0284C201.08 24.8504 200.735 24.7614 200.341 24.7614C199.92 24.7614 199.551 24.8636 199.233 25.0682C198.915 25.2689 198.667 25.5341 198.489 25.8636C198.314 26.1894 198.225 26.5473 198.222 26.9375V28.1477C198.222 28.6553 198.314 29.0909 198.5 29.4545C198.686 29.8144 198.945 30.0909 199.278 30.2841C199.612 30.4735 200.002 30.5682 200.449 30.5682C200.748 30.5682 201.019 30.5265 201.261 30.4432C201.504 30.3561 201.714 30.2292 201.892 30.0625C202.07 29.8958 202.205 29.6894 202.295 29.4432L204.216 29.6591C204.095 30.1667 203.864 30.6098 203.523 30.9886C203.186 31.3636 202.754 31.6553 202.227 31.8636C201.701 32.0682 201.098 32.1705 200.42 32.1705Z" fill="#344054"/>
<rect x="4.5" y="4.5" width="216" height="43" rx="7.5" stroke="#D0D5DD"/>
</g>
<defs>
<filter id="filter0_dd_19_16480" x="0" y="0" width="225" height="52" filterUnits="userSpaceOnUse" color-interpolation-filters="sRGB">
<feFlood flood-opacity="0" result="BackgroundImageFix"/>
<feColorMatrix in="SourceAlpha" type="matrix" values="0 0 0 0 0 0 0 0 0 0 0 0 0 0 0 0 0 0 127 0" result="hardAlpha"/>
<feMorphology radius="4" operator="dilate" in="SourceAlpha" result="effect1_dropShadow_19_16480"/>
<feOffset/>
<feColorMatrix type="matrix" values="0 0 0 0 0.949765 0 0 0 0 0.955804 0 0 0 0 0.967882 0 0 0 1 0"/>
<feBlend mode="normal" in2="BackgroundImageFix" result="effect1_dropShadow_19_16480"/>
<feColorMatrix in="SourceAlpha" type="matrix" values="0 0 0 0 0 0 0 0 0 0 0 0 0 0 0 0 0 0 127 0" result="hardAlpha"/>
<feOffset dy="1"/>
<feGaussianBlur stdDeviation="1"/>
<feColorMatrix type="matrix" values="0 0 0 0 0.0627451 0 0 0 0 0.0941176 0 0 0 0 0.156863 0 0 0 0.05 0"/>
<feBlend mode="normal" in2="effect1_dropShadow_19_16480" result="effect2_dropShadow_19_16480"/>
<feBlend mode="normal" in="SourceGraphic" in2="effect2_dropShadow_19_16480" result="shape"/>
</filter>
<clipPath id="clip0_19_16480">
<rect width="24" height="24" fill="white" transform="translate(20 14)"/>
</clipPath>
</defs>
</svg>
