<svg width="500" height="500" viewBox="0 0 500 500" fill="none" xmlns="http://www.w3.org/2000/svg">
<path d="M417.406 326.928H443.887V315.738H417.406V326.928Z" fill="#EBEBEB"/>
<path d="M432.175 341.037H458.656V329.847H432.175V341.037Z" fill="#EBEBEB"/>
<path d="M206.414 203.354H232.895V192.164H206.414V203.354Z" fill="#EBEBEB"/>
<path d="M221.187 217.463H247.668V206.273H221.187V217.463Z" fill="#EBEBEB"/>
<path d="M235.898 203.354H262.379V192.164H235.898V203.354Z" fill="#EBEBEB"/>
<path d="M41.3393 341.037H67.8203V329.847H41.3393V341.037Z" fill="#EBEBEB"/>
<path d="M56.1127 57.9258H82.5938V46.7358H56.1127V57.9258Z" fill="#EBEBEB"/>
<path d="M41.3393 72.0352H67.8203V60.8452H41.3393V72.0352Z" fill="#EBEBEB"/>
<path d="M417.406 57.9258H443.887V46.7358H417.406V57.9258Z" fill="#EBEBEB"/>
<path d="M450.648 71.2637H307.844V230.587H450.648V71.2637Z" fill="#DBDBDB"/>
<path d="M441.24 80.6699H317.25V221.262H441.24V80.6699Z" fill="#EBEBEB"/>
<path d="M372.165 105.529H328.461V157.315H372.165V105.529Z" fill="white"/>
<path d="M351.884 109.051C351.884 109.919 351.181 110.622 350.313 110.622C349.445 110.622 348.742 109.919 348.742 109.051C348.742 108.183 349.445 107.48 350.313 107.48C351.181 107.48 351.884 108.184 351.884 109.051Z" fill="#A6A6A6"/>
<path d="M336.777 115.903C341.196 115.563 345.615 115.541 350.034 115.492C354.453 115.54 358.872 115.56 363.291 115.903C358.872 116.245 354.453 116.266 350.034 116.314C345.615 116.265 341.196 116.243 336.777 115.903Z" fill="#EBEBEB"/>
<path d="M336.777 119.995C339.179 119.675 341.581 119.6 343.984 119.584C346.386 119.599 348.788 119.673 351.191 119.995C348.789 120.317 346.386 120.391 343.984 120.406C341.582 120.389 339.18 120.315 336.777 119.995Z" fill="#EBEBEB"/>
<path d="M336.777 124.087C339.847 123.767 342.916 123.692 345.985 123.676C349.054 123.691 352.124 123.765 355.194 124.087C352.124 124.409 349.055 124.483 345.985 124.498C342.916 124.482 339.847 124.408 336.777 124.087Z" fill="#EBEBEB"/>
<path d="M336.777 128.181C340.618 127.86 344.458 127.786 348.299 127.77C352.14 127.785 355.98 127.859 359.821 128.181C355.98 128.503 352.14 128.577 348.299 128.592C344.458 128.576 340.618 128.501 336.777 128.181Z" fill="#EBEBEB"/>
<path d="M336.777 132.272C340.113 131.952 343.45 131.877 346.786 131.861C350.122 131.876 353.459 131.95 356.795 132.272C353.459 132.594 350.122 132.668 346.786 132.683C343.45 132.666 340.114 132.592 336.777 132.272Z" fill="#EBEBEB"/>
<path d="M336.777 136.366C341.047 136.026 345.318 136.004 349.589 135.955C353.86 136.003 358.13 136.023 362.401 136.366C358.131 136.708 353.86 136.729 349.589 136.777C345.319 136.728 341.048 136.705 336.777 136.366Z" fill="#EBEBEB"/>
<path d="M336.777 140.458C339.535 140.137 342.293 140.063 345.051 140.047C347.809 140.062 350.567 140.136 353.325 140.458C350.567 140.78 347.809 140.854 345.051 140.869C342.294 140.853 339.535 140.778 336.777 140.458Z" fill="#EBEBEB"/>
<path d="M336.777 144.552C341.196 144.212 345.615 144.19 350.034 144.141C354.453 144.189 358.872 144.209 363.291 144.552C358.872 144.894 354.453 144.915 350.034 144.963C345.615 144.914 341.196 144.891 336.777 144.552Z" fill="#EBEBEB"/>
<path d="M336.777 148.643C341.196 148.303 345.615 148.281 350.034 148.232C354.453 148.28 358.872 148.3 363.291 148.643C358.872 148.985 354.453 149.006 350.034 149.054C345.615 149.005 341.196 148.982 336.777 148.643Z" fill="#EBEBEB"/>
<path d="M430.531 137.818H378.816V199.096H430.531V137.818Z" fill="white"/>
<path d="M385.13 142.284C385.13 143.152 384.426 143.855 383.559 143.855C382.691 143.855 381.988 143.152 381.988 142.284C381.988 141.416 382.691 140.713 383.559 140.713C384.426 140.713 385.13 141.417 385.13 142.284Z" fill="#A6A6A6"/>
<path d="M386.055 153.106C387.967 152.786 389.878 152.711 391.79 152.695C393.702 152.71 395.613 152.784 397.525 153.106C395.613 153.428 393.702 153.503 391.79 153.517C389.878 153.501 387.967 153.427 386.055 153.106Z" fill="#EBEBEB"/>
<path d="M386.055 157.727C388.53 157.407 391.005 157.332 393.48 157.316C395.955 157.331 398.43 157.405 400.905 157.727C398.43 158.049 395.955 158.124 393.48 158.138C391.005 158.121 388.53 158.047 386.055 157.727Z" fill="#EBEBEB"/>
<path d="M386.055 162.347C388.348 162.027 390.641 161.952 392.934 161.936C395.227 161.95 397.52 162.025 399.813 162.347C397.52 162.669 395.227 162.743 392.934 162.758C390.641 162.742 388.348 162.667 386.055 162.347Z" fill="#EBEBEB"/>
<path d="M386.055 166.968C388.348 166.648 390.641 166.573 392.934 166.557C395.227 166.572 397.52 166.646 399.813 166.968C397.52 167.29 395.227 167.364 392.934 167.379C390.641 167.362 388.348 167.288 386.055 166.968Z" fill="#EBEBEB"/>
<path d="M386.055 171.589C388.047 171.269 390.039 171.194 392.031 171.178C394.023 171.193 396.015 171.267 398.007 171.589C396.015 171.911 394.023 171.985 392.031 172C390.039 171.984 388.047 171.909 386.055 171.589Z" fill="#EBEBEB"/>
<path d="M386.055 176.208C388.605 175.888 391.154 175.813 393.704 175.797C396.254 175.812 398.804 175.886 401.353 176.208C398.803 176.53 396.254 176.604 393.704 176.619C391.154 176.603 388.605 176.528 386.055 176.208Z" fill="#EBEBEB"/>
<path d="M386.055 180.829C388.16 180.509 390.264 180.434 392.368 180.418C394.472 180.433 396.577 180.507 398.681 180.829C396.577 181.151 394.472 181.225 392.368 181.24C390.264 181.223 388.16 181.149 386.055 180.829Z" fill="#EBEBEB"/>
<path d="M386.055 185.45C388.693 185.13 391.331 185.055 393.97 185.039C396.608 185.054 399.247 185.128 401.885 185.45C399.247 185.772 396.608 185.846 393.97 185.861C391.331 185.844 388.693 185.77 386.055 185.45Z" fill="#EBEBEB"/>
<path d="M386.055 190.069C388.693 189.749 391.331 189.674 393.97 189.658C396.608 189.673 399.247 189.747 401.885 190.069C399.247 190.391 396.608 190.465 393.97 190.48C391.331 190.464 388.693 190.39 386.055 190.069Z" fill="#EBEBEB"/>
<path d="M408.652 153.106C411.157 152.786 413.661 152.711 416.166 152.695C418.671 152.71 421.175 152.784 423.68 153.106C421.175 153.428 418.671 153.503 416.166 153.517C413.661 153.501 411.157 153.427 408.652 153.106Z" fill="#EBEBEB"/>
<path d="M408.652 157.727C410.299 157.407 411.945 157.332 413.592 157.316C415.239 157.331 416.885 157.405 418.532 157.727C416.885 158.049 415.239 158.124 413.592 158.138C411.945 158.121 410.298 158.047 408.652 157.727Z" fill="#EBEBEB"/>
<path d="M408.652 162.347C411.009 162.027 413.365 161.952 415.721 161.936C418.078 161.95 420.434 162.025 422.79 162.347C420.434 162.669 418.077 162.743 415.721 162.758C413.364 162.742 411.008 162.667 408.652 162.347Z" fill="#EBEBEB"/>
<path d="M408.652 166.968C410.945 166.648 413.238 166.573 415.531 166.557C417.824 166.572 420.117 166.646 422.41 166.968C420.117 167.29 417.824 167.364 415.531 167.379C413.237 167.362 410.945 167.288 408.652 166.968Z" fill="#EBEBEB"/>
<path d="M408.652 171.589C411.157 171.269 413.661 171.194 416.166 171.178C418.671 171.193 421.175 171.267 423.68 171.589C421.175 171.911 418.671 171.985 416.166 172C413.661 171.984 411.157 171.909 408.652 171.589Z" fill="#EBEBEB"/>
<path d="M408.652 176.208C410.644 175.888 412.636 175.813 414.628 175.797C416.62 175.812 418.612 175.886 420.604 176.208C418.612 176.53 416.62 176.604 414.628 176.619C412.636 176.603 410.644 176.528 408.652 176.208Z" fill="#EBEBEB"/>
<path d="M408.652 180.829C411.009 180.509 413.365 180.434 415.721 180.418C418.078 180.433 420.434 180.507 422.79 180.829C420.434 181.151 418.077 181.225 415.721 181.24C413.364 181.223 411.008 181.149 408.652 180.829Z" fill="#EBEBEB"/>
<path d="M408.652 185.45C410.475 185.13 412.297 185.055 414.12 185.039C415.943 185.054 417.765 185.128 419.588 185.45C417.765 185.772 415.943 185.846 414.12 185.861C412.297 185.844 410.474 185.77 408.652 185.45Z" fill="#EBEBEB"/>
<path d="M408.652 190.069C410.401 189.749 412.149 189.674 413.898 189.658C415.646 189.673 417.395 189.747 419.143 190.069C417.394 190.391 415.646 190.465 413.898 190.48C412.149 190.464 410.4 190.39 408.652 190.069Z" fill="#EBEBEB"/>
<path d="M394.441 91.293H368.145V117.589H394.441V91.293Z" fill="#A6A6A6"/>
<path d="M382.865 93.9616C382.865 94.8296 382.162 95.5326 381.294 95.5326C380.426 95.5326 379.723 94.8296 379.723 93.9616C379.723 93.0936 380.427 92.3906 381.294 92.3906C382.161 92.3906 382.865 93.0936 382.865 93.9616Z" fill="#EBEBEB"/>
<path d="M441.122 80.6699H437.574V221.416H441.122V80.6699Z" fill="#C7C7C7"/>
<path d="M156.624 119.281C170.482 99.8729 165.983 72.9056 146.576 59.0474C127.168 45.1892 100.201 49.688 86.3425 69.0956C72.4843 88.5033 76.983 115.471 96.3907 129.329C115.798 143.187 142.766 138.688 156.624 119.281Z" fill="#EBEBEB"/>
<path d="M156.436 119.872C170.092 101.668 166.404 75.8397 148.199 62.1839C129.995 48.5282 104.167 52.2158 90.5111 70.4204C76.8553 88.625 80.5429 114.453 98.7476 128.109C116.952 141.764 142.78 138.077 156.436 119.872Z" fill="#DBDBDB"/>
<path d="M145.85 126.588C163.217 114.223 167.271 90.1214 154.906 72.7551C142.541 55.3889 118.44 51.3344 101.073 63.6993C83.707 76.0642 79.6526 100.166 92.0175 117.532C104.382 134.899 128.484 138.953 145.85 126.588Z" fill="white"/>
<path opacity="0.5" d="M161.19 86.9575C143.613 97.6085 114.723 115.08 98.5753 124.657C94.0453 120.834 90.4103 115.988 88.0273 110.474L141.431 60.9785C151.376 66.2155 158.752 75.6695 161.19 86.9575Z" fill="#EBEBEB"/>
<path opacity="0.5" d="M162.037 96.4961C161.89 100.906 160.998 105.127 159.486 109.039L111.342 131.808C109.23 131.108 107.196 130.234 105.262 129.195C119.805 120.791 146.38 105.501 162.037 96.4961Z" fill="#EBEBEB"/>
<path d="M123.836 59.3496H123.09V65.2006H123.836V59.3496Z" fill="#C7C7C7"/>
<path d="M105.889 63.9664L105.242 64.3398L108.167 69.4074L108.814 69.034L105.889 63.9664Z" fill="#C7C7C7"/>
<path d="M92.6425 76.9223L92.2695 77.5684L97.3365 80.4939L97.7095 79.8478L92.6425 76.9223Z" fill="#C7C7C7"/>
<path d="M93.5141 94.7754H87.6641V95.5214H93.5141V94.7754Z" fill="#C7C7C7"/>
<path d="M97.3398 109.796L92.2734 112.723L92.6466 113.369L97.713 110.442L97.3398 109.796Z" fill="#C7C7C7"/>
<path d="M108.158 120.901L105.234 125.969L105.881 126.342L108.805 121.274L108.158 120.901Z" fill="#C7C7C7"/>
<path d="M123.836 125.098H123.09V130.949H123.836V125.098Z" fill="#C7C7C7"/>
<path d="M138.756 120.894L138.109 121.268L141.035 126.335L141.682 125.961L138.756 120.894Z" fill="#C7C7C7"/>
<path d="M149.592 109.797L149.219 110.443L154.286 113.369L154.659 112.723L149.592 109.797Z" fill="#C7C7C7"/>
<path d="M159.261 94.7754H153.41V95.5214H159.261V94.7754Z" fill="#C7C7C7"/>
<path d="M154.289 76.9224L149.223 79.8496L149.596 80.4956L154.662 77.5683L154.289 76.9224Z" fill="#C7C7C7"/>
<path d="M141.048 63.9586L138.125 69.0273L138.772 69.4005L141.695 64.3318L141.048 63.9586Z" fill="#C7C7C7"/>
<path d="M124.025 62.0003L125.295 97.7543L121.633 97.7093L123.031 61.9883L124.025 62.0003Z" fill="#C7C7C7"/>
<path d="M146.296 82.6806L122.241 98.0346L120.492 94.8166L145.822 81.8066L146.296 82.6806Z" fill="#A6A6A6"/>
<path d="M124.715 95.1504C124.715 95.8404 124.156 96.4004 123.465 96.4004C122.775 96.4004 122.215 95.8404 122.215 95.1504C122.215 94.4604 122.775 93.9004 123.465 93.9004C124.155 93.9004 124.715 94.4594 124.715 95.1504Z" fill="#C7C7C7"/>
<path d="M465.972 433.003L411.979 433.246L357.985 433.335L249.998 433.502L142.011 433.336L88.0174 433.248L34.0234 433.003L88.0174 432.759L142.011 432.671L249.998 432.504L357.985 432.672L411.979 432.76L465.972 433.003Z" fill="#263238"/>
<path d="M417.46 141.231C417.353 138.153 417.547 135.104 417.816 132.062C418.114 129.022 418.489 125.99 419.167 122.986C419.276 126.064 419.082 129.113 418.811 132.155C418.51 135.194 418.136 138.227 417.46 141.231Z" fill="#263238"/>
<path d="M412.063 142.282C410.431 139.67 409.075 136.932 407.786 134.163C406.525 131.381 405.332 128.568 404.418 125.627C406.052 128.238 407.408 130.976 408.695 133.746C409.954 136.528 411.146 139.342 412.063 142.282Z" fill="#263238"/>
<path d="M407.921 145.888C405.202 144.442 402.659 142.749 400.158 140.995C397.675 139.217 395.235 137.377 392.973 135.287C395.693 136.731 398.237 138.425 400.736 140.18C403.218 141.96 405.657 143.8 407.921 145.888Z" fill="#263238"/>
<path d="M406.132 151.084C403.054 151.191 400.005 150.997 396.963 150.728C393.923 150.43 390.891 150.055 387.887 149.377C390.965 149.268 394.014 149.462 397.056 149.733C400.095 150.034 403.128 150.408 406.132 151.084Z" fill="#263238"/>
<path d="M425.523 157.754C428.242 159.2 430.785 160.893 433.286 162.647C435.769 164.425 438.208 166.265 440.471 168.355C437.751 166.911 435.207 165.217 432.708 163.462C430.226 161.682 427.787 159.841 425.523 157.754Z" fill="#263238"/>
<path d="M427.312 152.557C430.391 152.45 433.44 152.644 436.482 152.913C439.522 153.211 442.553 153.586 445.557 154.264C442.479 154.373 439.43 154.179 436.388 153.908C433.349 153.607 430.316 153.233 427.312 152.557Z" fill="#263238"/>
<path d="M426.258 147.165C428.87 145.533 431.608 144.177 434.377 142.888C437.159 141.627 439.972 140.434 442.913 139.52C440.302 141.154 437.564 142.51 434.794 143.797C432.012 145.056 429.198 146.248 426.258 147.165Z" fill="#263238"/>
<path d="M422.652 143.018C424.098 140.299 425.791 137.756 427.545 135.255C429.323 132.772 431.163 130.332 433.253 128.07C431.809 130.79 430.115 133.334 428.36 135.833C426.58 138.315 424.739 140.754 422.652 143.018Z" fill="#263238"/>
<path d="M194.974 368.789C193.864 370.198 100.502 374.386 96.0541 373.108C95.8831 373.067 95.6791 372.972 95.4381 372.846C89.9431 370.274 66.3401 352.451 62.5771 344.937C59.5531 338.898 77.3651 306.096 83.5751 300.473C87.7041 296.734 95.3661 295.27 95.3661 295.27C95.3661 295.27 116.994 232.872 130.324 219.808C133.668 216.531 191.565 215.249 201.91 219.966C206.338 221.986 217.113 232.991 217.407 234.965C217.407 234.965 217.407 234.965 217.402 234.987C217.681 237.863 196.09 367.359 194.974 368.789Z" fill="#37474F"/>
<path d="M195.638 368.79C194.528 370.199 101.166 374.387 96.7176 373.109C96.5466 373.068 96.3426 372.973 96.1016 372.847C105.044 348.662 147.102 235.161 148.297 234.431C149.466 233.716 204.818 234.033 218.065 234.988C218.345 237.864 196.754 367.36 195.638 368.79Z" fill="#263238"/>
<path d="M161.353 224.411C160.419 223.532 159.801 210.846 161.515 208.323C163.44 205.489 185.643 206.889 186.952 209.303C188.261 211.717 188.887 224.392 188.218 224.849C187.55 225.305 183.846 225.745 183.349 224.932C182.852 224.119 182.879 213.637 182.487 213.086C182.095 212.535 166.548 211.519 166.013 212.319C165.479 213.119 166.781 223.72 166.158 224.183C165.535 224.645 162.263 225.266 161.353 224.411Z" fill="#37474F"/>
<path d="M115.494 282.037L108.641 278.824L104.946 286.707L111.8 289.92L115.494 282.037Z" fill="#DBDBDB"/>
<path d="M115.159 288.378L103.984 283.141L99.7654 292.142L110.94 297.38L115.159 288.378Z" fill="#C7C7C7"/>
<path d="M113.407 312.121C109.586 320.274 94.1002 353.314 94.1002 353.314L67.5352 340.863C67.5352 340.863 83.0212 307.824 86.8422 299.671C90.6632 291.518 98.7392 287.628 106.89 291.448C115.052 295.274 117.229 303.968 113.407 312.121Z" fill="#77D9FE"/>
<path opacity="0.1" d="M113.407 312.121C109.586 320.274 94.1002 353.314 94.1002 353.314L67.5352 340.863C67.5352 340.863 83.0212 307.824 86.8422 299.671C90.6632 291.518 98.7392 287.628 106.89 291.448C115.052 295.274 117.229 303.968 113.407 312.121Z" fill="black"/>
<path d="M104.018 293.854C103.75 294.426 103.07 294.672 102.498 294.404C101.927 294.136 101.68 293.456 101.948 292.884C102.216 292.313 102.896 292.067 103.468 292.334C104.039 292.603 104.285 293.283 104.018 293.854Z" fill="white"/>
<path d="M112.846 309.351C112.578 309.923 111.898 310.169 111.326 309.901C110.755 309.633 110.508 308.953 110.776 308.381C111.044 307.81 111.724 307.563 112.296 307.831C112.868 308.099 113.114 308.78 112.846 309.351Z" fill="white"/>
<path d="M100.604 304.874C100.336 305.445 99.656 305.692 99.084 305.424C98.513 305.156 98.266 304.476 98.534 303.904C98.802 303.333 99.482 303.086 100.054 303.354C100.626 303.623 100.872 304.303 100.604 304.874Z" fill="white"/>
<path d="M97.0025 315.253C96.7345 315.825 96.0545 316.071 95.4825 315.803C94.9115 315.535 94.6645 314.855 94.9325 314.283C95.2005 313.712 95.8805 313.465 96.4525 313.733C97.0245 314.002 97.2705 314.682 97.0025 315.253Z" fill="white"/>
<path d="M81.4626 320.574C81.1946 321.145 80.5146 321.392 79.9436 321.124C79.3716 320.856 79.1256 320.176 79.3936 319.604C79.6616 319.033 80.3416 318.786 80.9136 319.054C81.4846 319.322 81.7306 320.003 81.4626 320.574Z" fill="white"/>
<path d="M84.7403 310.893C84.4723 311.464 83.7923 311.711 83.2203 311.443C82.6493 311.175 82.4033 310.495 82.6703 309.923C82.9383 309.352 83.6183 309.106 84.1903 309.373C84.7623 309.641 85.0083 310.322 84.7403 310.893Z" fill="white"/>
<path d="M89.569 301.263C89.301 301.834 88.621 302.081 88.049 301.813C87.477 301.545 87.231 300.865 87.499 300.293C87.767 299.722 88.447 299.475 89.019 299.743C89.591 300.011 89.837 300.691 89.569 301.263Z" fill="white"/>
<path d="M96.8501 297.404C96.5821 297.975 95.9021 298.222 95.3301 297.954C94.7591 297.686 94.5121 297.006 94.7801 296.434C95.0481 295.863 95.7281 295.616 96.3001 295.884C96.8711 296.152 97.1181 296.832 96.8501 297.404Z" fill="white"/>
<path d="M93.0762 308.152C92.8082 308.723 92.1282 308.97 91.5562 308.702C90.9852 308.434 90.7392 307.754 91.0062 307.182C91.2742 306.611 91.9542 306.364 92.5262 306.632C93.0982 306.901 93.3442 307.581 93.0762 308.152Z" fill="white"/>
<path d="M108.436 301.73C108.168 302.302 107.488 302.548 106.916 302.28C106.344 302.012 106.098 301.332 106.366 300.76C106.634 300.189 107.314 299.942 107.886 300.21C108.457 300.478 108.703 301.158 108.436 301.73Z" fill="white"/>
<path d="M104.979 312.368C104.711 312.94 104.031 313.186 103.459 312.918C102.888 312.65 102.642 311.97 102.909 311.398C103.177 310.827 103.857 310.581 104.428 310.848C105.001 311.116 105.247 311.797 104.979 312.368Z" fill="white"/>
<path d="M89.1159 318.042C88.8479 318.613 88.1679 318.859 87.5959 318.592C87.0239 318.324 86.7779 317.644 87.0459 317.072C87.3139 316.501 87.9939 316.254 88.5659 316.522C89.1379 316.79 89.3839 317.471 89.1159 318.042Z" fill="white"/>
<path d="M96.4362 331.441C96.1682 332.013 95.4882 332.259 94.9162 331.991C94.3442 331.723 94.0982 331.043 94.3662 330.471C94.6342 329.9 95.3142 329.653 95.8862 329.921C96.4572 330.19 96.7032 330.87 96.4362 331.441Z" fill="white"/>
<path d="M92.6315 339.152C92.3635 339.724 91.6835 339.97 91.1115 339.702C90.5395 339.434 90.2935 338.754 90.5615 338.182C90.8295 337.611 91.5095 337.364 92.0815 337.632C92.6535 337.9 92.8995 338.581 92.6315 339.152Z" fill="white"/>
<path d="M85.8223 326.687C85.5543 327.258 84.8743 327.505 84.3023 327.237C83.7313 326.969 83.4853 326.289 83.7523 325.717C84.0193 325.145 84.7003 324.899 85.2723 325.167C85.8443 325.435 86.0903 326.116 85.8223 326.687Z" fill="white"/>
<path d="M75.0925 336.454C74.8245 337.025 74.1445 337.271 73.5725 337.004C73.0005 336.736 72.7545 336.056 73.0225 335.484C73.2905 334.913 73.9705 334.666 74.5425 334.934C75.1135 335.202 75.3595 335.882 75.0925 336.454Z" fill="white"/>
<path d="M93.3581 324.54C93.0901 325.112 92.4101 325.359 91.8381 325.091C91.2661 324.823 91.0201 324.142 91.2881 323.57C91.5561 322.998 92.2361 322.753 92.8081 323.021C93.3791 323.289 93.6261 323.968 93.3581 324.54Z" fill="white"/>
<path d="M89.5489 333.009C89.2809 333.58 88.6009 333.827 88.0289 333.559C87.4579 333.291 87.2119 332.611 87.4789 332.039C87.7469 331.468 88.4269 331.221 88.9989 331.489C89.5699 331.757 89.8159 332.438 89.5489 333.009Z" fill="white"/>
<path d="M85.6196 341.39C85.3516 341.961 84.6716 342.207 84.0996 341.94C83.5286 341.672 83.2816 340.992 83.5496 340.42C83.8176 339.849 84.4976 339.602 85.0696 339.87C85.6416 340.138 85.8876 340.819 85.6196 341.39Z" fill="white"/>
<path d="M89.065 347.737C88.797 348.308 88.1169 348.555 87.5449 348.287C86.9739 348.019 86.727 347.339 86.995 346.767C87.263 346.196 87.9429 345.95 88.5149 346.217C89.0869 346.486 89.333 347.166 89.065 347.737Z" fill="white"/>
<path d="M78.6587 328.503C78.3907 329.075 77.7107 329.321 77.1387 329.053C76.5677 328.785 76.3207 328.105 76.5887 327.533C76.8567 326.961 77.5367 326.715 78.1087 326.983C78.6807 327.252 78.9267 327.932 78.6587 328.503Z" fill="white"/>
<path d="M82.0884 334.654C81.8204 335.226 81.1404 335.472 80.5684 335.204C79.9974 334.936 79.7504 334.256 80.0184 333.684C80.2864 333.113 80.9664 332.866 81.5384 333.134C82.1094 333.402 82.3554 334.083 82.0884 334.654Z" fill="white"/>
<path d="M95.811 346.165C95.543 346.736 94.863 346.984 94.291 346.716C93.72 346.448 93.473 345.767 93.741 345.195C94.009 344.623 94.689 344.378 95.261 344.646C95.833 344.914 96.079 345.593 95.811 346.165Z" fill="white"/>
<path d="M78.5103 342.892C78.2423 343.463 77.5623 343.71 76.9903 343.442C76.4193 343.174 76.1723 342.494 76.4403 341.922C76.7083 341.35 77.3883 341.104 77.9603 341.372C78.5313 341.641 78.7783 342.321 78.5103 342.892Z" fill="white"/>
<path d="M103.701 329.736C103.433 330.308 102.753 330.553 102.181 330.286C101.61 330.018 101.364 329.338 101.631 328.766C101.899 328.195 102.579 327.948 103.151 328.216C103.723 328.484 103.969 329.164 103.701 329.736Z" fill="white"/>
<path d="M99.8926 337.859C99.6246 338.43 98.9446 338.676 98.3726 338.409C97.8016 338.141 97.5556 337.461 97.8226 336.889C98.0906 336.318 98.7706 336.071 99.3426 336.339C99.9146 336.607 100.161 337.287 99.8926 337.859Z" fill="white"/>
<path d="M100.631 323.06C100.363 323.632 99.6829 323.878 99.1109 323.61C98.5399 323.342 98.2939 322.662 98.5609 322.09C98.8289 321.518 99.5089 321.272 100.081 321.54C100.653 321.808 100.899 322.489 100.631 323.06Z" fill="white"/>
<path d="M108.651 320.525C108.383 321.096 107.703 321.343 107.131 321.075C106.56 320.807 106.313 320.127 106.581 319.555C106.849 318.984 107.529 318.737 108.101 319.005C108.673 319.273 108.919 319.954 108.651 320.525Z" fill="white"/>
<path d="M64.4259 341.445C66.6729 352.452 91.1149 364.306 92.7779 364.259C94.4409 364.212 110.67 324.057 110.67 324.057C110.67 324.057 90.8979 317.557 81.9709 306.018C81.9709 306.018 63.7249 338.012 64.4259 341.445Z" fill="#455A64"/>
<path d="M253.096 432.602H158.504C152.741 410.624 147.453 391.194 144.079 378.931C141.962 371.22 140.603 366.329 140.342 365.411C140.308 365.298 140.297 365.252 140.297 365.252H238.659C238.659 365.252 239.78 370.393 241.66 379.043C242.849 384.614 244.366 391.657 246.099 399.707C246.246 400.409 246.405 401.122 246.552 401.858C248.533 411.077 250.764 421.528 253.096 432.602Z" fill="#455A64"/>
<path d="M172.837 432.603H171.059C166.224 414.769 161.468 396.913 156.894 379.012L156.509 377.506C156.418 377.087 157.03 376.906 157.154 377.313C157.324 377.879 157.494 378.445 157.652 379.011C162.873 396.823 167.889 414.702 172.837 432.603Z" fill="#263238"/>
<path d="M230.982 365.411C230.597 368.468 229.397 373.416 227.619 379.202C226.521 382.78 225.196 386.653 223.69 390.638C223.373 391.544 223.011 392.427 222.66 393.333C217.893 405.483 211.62 417.859 205.223 423.735C205.212 423.735 205.212 423.735 205.2 423.746C205.177 423.746 205.177 423.746 205.177 423.746C204.35 424.516 203.535 425.173 202.709 425.682L197.229 429.067C197.229 429.067 197.229 429.101 197.206 429.146V429.157C197.149 429.485 196.957 430.674 196.64 432.599H104.392C102.037 411.221 106.951 391.214 111.242 378.679C114.05 370.424 116.598 365.408 116.598 365.408H230.982V365.411Z" fill="#455A64"/>
<path d="M220.023 418.527C214.26 421.833 208.202 424.46 202.121 427.087C200.491 427.789 198.86 428.48 197.207 429.148H197.196C197.094 429.193 196.992 429.239 196.89 429.272C195.463 429.861 194.037 430.427 192.599 430.982C191.206 431.514 189.814 432.08 188.398 432.601H185.273C187.424 431.514 189.678 430.597 191.863 429.623C194.909 428.264 197.955 426.917 201.012 425.581C202.405 424.981 203.798 424.369 205.179 423.747C205.19 423.747 205.213 423.736 205.224 423.736C209.991 421.619 214.747 419.501 219.649 417.712C220.136 417.53 220.453 418.266 220.023 418.527Z" fill="#263238"/>
<path d="M197.231 429.216C197.242 429.941 197.174 431.13 197.038 432.602H196.008C196.325 431.221 196.619 430.088 196.891 429.273C196.902 429.239 196.902 429.216 196.925 429.183C196.97 429.047 197.151 429.036 197.197 429.149H197.208V429.16C197.231 429.182 197.231 429.193 197.231 429.216Z" fill="#263238"/>
<path d="M125.533 371.164C124.288 373.655 123.155 376.191 122.102 378.784C115.829 394.364 113.259 411.507 115.138 428.243C115.308 429.704 115.512 431.153 115.738 432.602H114.107C113.496 428.367 113.088 424.132 113.009 419.852C112.692 405.721 115.432 391.669 121.071 378.761C122.249 376.066 123.562 373.428 124.989 370.858C125.182 370.507 125.714 370.813 125.533 371.164Z" fill="#263238"/>
<path d="M194.916 403.475C195.005 399.923 195.257 396.371 195.433 392.822C195.848 384.441 196.173 376.013 196.951 367.657C196.982 367.325 197.466 367.332 197.472 367.67C197.577 374.153 197.326 380.655 197.195 387.138C197.129 390.382 197.034 393.626 196.945 396.869C196.861 399.955 196.653 403.081 196.883 406.165C197.057 408.502 197.57 413.045 200.62 413.326C203.492 413.591 205.77 410.491 206.488 408.217C208.31 402.446 208.959 396.212 209.548 390.211C209.897 386.657 210.308 372.187 210.113 368.593C210.1 368.362 210.46 368.372 210.472 368.602C210.671 372.262 211.173 375.903 211.295 379.583C211.416 383.235 211.428 386.903 211.192 390.55C210.965 394.05 210.671 397.568 210.144 401.037C209.67 404.158 209.145 407.393 207.89 410.31C206.833 412.767 205.015 415.029 202.257 415.567C201.909 415.635 201.567 415.666 201.233 415.672C201.2 416.424 201.098 417.181 201.045 417.923C200.962 419.098 200.817 420.266 200.659 421.433C200.505 422.573 200.244 423.718 199.941 424.828C199.64 425.93 199.345 427.089 198.748 428.075C198.649 428.239 198.429 428.144 198.416 427.976C198.329 426.861 198.546 425.729 198.696 424.628C198.852 423.488 199.012 422.332 199.247 421.206C199.478 420.097 199.683 418.982 199.911 417.872C200.064 417.129 200.168 416.362 200.309 415.606C198.541 415.327 197.07 414.165 196.238 412.404C194.946 409.671 194.842 406.442 194.916 403.475Z" fill="#263238"/>
<path d="M193.204 242.702C205.138 257.649 251.916 310.717 277.915 315.646C295.426 318.966 351.675 290.369 364.004 280.009C369.048 275.77 340.881 233.799 334.042 235.487C326.603 237.323 286.115 264.227 280.857 263.924C275.599 263.621 234.132 240.311 208.971 229.961C193.898 223.761 186.488 234.29 193.204 242.702Z" fill="#AD6359"/>
<path d="M348.554 289.998C359.373 285.828 392.182 262.816 397.631 256.843C403.08 250.871 417.515 232.547 413.365 227.91C409.214 223.272 404.559 228.299 404.559 228.299C404.559 228.299 410.026 218.85 404.827 215.309C400.678 212.484 393.752 219.212 393.752 219.212C393.752 219.212 399.199 208.542 393.592 205.69C388.483 203.092 382.848 212.231 382.848 212.231C382.848 212.231 386.502 202.841 381.098 201.286C374.598 199.415 368.268 215.664 361.758 221.807C360.279 223.202 316.605 244.626 316.605 244.626L348.554 289.998Z" fill="#AD6359"/>
<path d="M382.611 211.75C376.628 223.441 373.814 228.1 363.642 235.577C363.443 235.723 363.615 236.052 363.837 235.918C374.464 229.503 378.203 224.211 383.201 211.946C383.442 211.354 382.889 211.206 382.611 211.75Z" fill="#263238"/>
<path d="M393.625 219.205C387.678 231.179 383.132 235.708 373.054 244.322C372.911 244.444 373.103 244.698 373.257 244.588C383.85 236.964 389.685 232.048 394.056 219.303C394.254 218.726 393.897 218.657 393.625 219.205Z" fill="#263238"/>
<path d="M404.058 228.729C397.463 239.907 392.845 245.406 381.988 252.514C381.732 252.681 381.952 253.071 382.225 252.928C394.001 246.758 399.814 239.937 404.376 228.966C404.688 228.217 404.473 228.026 404.058 228.729Z" fill="#263238"/>
<path d="M447.633 261.742C418.923 270.125 390.668 278.508 363.132 286.891C346.664 249.884 344.228 212.878 332.953 175.871C361.7 167.485 389.993 159.099 417.567 150.713C433.988 187.723 436.384 224.732 447.633 261.742Z" fill="white"/>
<path d="M447.632 261.741C433.322 265.988 419.129 270.235 405.087 274.482C390.984 278.718 377.032 282.953 363.264 287.189C363.169 287.218 363.075 287.247 362.98 287.276C362.935 287.176 362.891 287.077 362.846 286.977C346.298 249.988 343.788 212.999 332.475 176.01C332.426 175.85 332.377 175.69 332.328 175.53C332.487 175.484 332.647 175.438 332.806 175.391C361.55 167.052 389.84 158.712 417.414 150.373C417.522 150.34 417.631 150.308 417.739 150.275C417.789 150.388 417.839 150.501 417.889 150.614C426.091 169.161 430.765 187.708 434.792 206.255C438.766 224.75 442.094 243.246 447.632 261.741ZM447.632 261.741C441.922 243.227 438.426 224.712 434.283 206.198C430.194 187.735 425.46 169.273 417.241 150.81C417.399 150.89 417.557 150.971 417.716 151.051C390.144 159.483 361.848 167.916 333.098 176.349C333.209 176.143 333.319 175.937 333.43 175.731C344.667 212.755 347.028 249.779 363.416 286.803C363.277 286.732 363.138 286.662 362.999 286.592C376.767 282.445 390.71 278.297 404.796 274.15C418.943 270.013 433.232 265.877 447.632 261.741Z" fill="#263238"/>
<path d="M346.539 192.045C362.766 187.384 378.905 182.722 394.911 178.062C395.192 179.012 395.467 179.963 395.737 180.913C379.678 185.574 363.496 190.236 347.235 194.896C347.007 193.946 346.775 192.996 346.539 192.045Z" fill="#DBDBDB"/>
<path d="M348.262 199.24C364.567 194.579 380.807 189.918 396.938 185.258C397.193 186.208 397.444 187.159 397.691 188.109C381.517 192.77 365.243 197.431 348.914 202.091C348.699 201.141 348.482 200.19 348.262 199.24Z" fill="#DBDBDB"/>
<path d="M349.883 206.435C366.241 201.774 382.559 197.113 398.791 192.453C399.026 193.403 399.257 194.354 399.485 195.304C383.22 199.965 366.878 204.626 350.506 209.286C350.3 208.336 350.092 207.386 349.883 206.435Z" fill="#DBDBDB"/>
<path d="M351.441 213.632C375.452 206.803 399.426 199.974 423.221 193.145C423.454 194.095 423.684 195.046 423.91 195.996C400.068 202.825 376.066 209.654 352.048 216.483C351.847 215.533 351.645 214.582 351.441 213.632Z" fill="#DBDBDB"/>
<path d="M352.973 220.827C376.991 213.998 401.024 207.169 424.927 200.34C425.145 201.29 425.361 202.241 425.574 203.191C401.638 210.02 377.592 216.849 353.58 223.678C353.377 222.727 353.175 221.777 352.973 220.827Z" fill="#DBDBDB"/>
<path d="M354.512 228.022C378.502 221.193 402.558 214.364 426.534 207.535C426.742 208.485 426.948 209.436 427.153 210.386C403.157 217.215 379.103 224.044 355.133 230.873C354.925 229.923 354.718 228.972 354.512 228.022Z" fill="#DBDBDB"/>
<path d="M356.102 235.217C380.029 228.388 404.072 221.559 428.086 214.73C428.289 215.68 428.491 216.631 428.692 217.581C404.673 224.41 380.645 231.239 356.753 238.068C356.534 237.117 356.317 236.167 356.102 235.217Z" fill="#DBDBDB"/>
<path d="M357.777 242.413C381.606 235.584 405.6 228.755 429.616 221.926C429.818 222.876 430.021 223.827 430.225 224.777C406.218 231.606 382.252 238.435 358.473 245.264C358.237 244.314 358.005 243.364 357.777 242.413Z" fill="#DBDBDB"/>
<path d="M359.574 249.61C383.268 242.781 407.179 235.952 431.162 229.123C431.369 230.073 431.577 231.024 431.787 231.974C407.827 238.803 383.959 245.632 360.328 252.461C360.072 251.511 359.821 250.56 359.574 249.61Z" fill="#DBDBDB"/>
<path d="M361.531 256.805C385.056 249.976 408.847 243.147 432.761 236.318C432.978 237.268 433.196 238.219 433.418 239.169C409.541 245.998 385.806 252.827 362.359 259.656C362.078 258.706 361.802 257.756 361.531 256.805Z" fill="#DBDBDB"/>
<path d="M363.684 264.001C387.003 257.172 410.64 250.343 434.45 243.514C434.681 244.464 434.915 245.415 435.153 246.365C411.394 253.194 387.829 260.023 364.6 266.852C364.289 265.902 363.983 264.951 363.684 264.001Z" fill="#DBDBDB"/>
<path d="M366.074 271.196C389.153 264.367 412.599 257.538 436.27 250.709C436.52 251.659 436.775 252.61 437.034 253.56C413.429 260.389 390.067 267.218 367.094 274.047C366.746 273.097 366.407 272.147 366.074 271.196Z" fill="#DBDBDB"/>
<path d="M403.169 192.905C402.1 185.133 400.797 177.362 399.047 169.59C404.511 175.161 409.746 180.733 414.829 186.304C414.331 186.76 413.833 187.216 413.333 187.673C409.773 183.752 406.14 179.831 402.409 175.91C403.497 181.456 404.386 187.001 405.154 192.547C404.491 192.666 403.83 192.786 403.169 192.905Z" fill="#77D9FE"/>
<path d="M401.741 188.862C401.355 188.332 400.967 187.802 400.578 187.271C404.141 184.615 407.67 181.959 411.158 179.303C411.562 179.833 411.964 180.363 412.365 180.894C408.861 183.55 405.317 186.206 401.741 188.862Z" fill="#77D9FE"/>
<path d="M398.618 166.544C396.979 167.774 395.504 169.209 394.29 170.849C393.073 172.486 392.153 174.341 391.55 176.289C390.93 178.23 390.634 180.279 390.692 182.3C390.749 184.313 391.123 186.332 391.974 188.068C393.766 191.519 396.978 194.322 400.802 194.988C404.623 195.736 408.716 194.368 412.134 192.108C415.593 189.91 418.451 186.718 419.636 182.907C420.873 179.154 420.413 174.809 418.174 171.505C417.044 169.876 415.418 168.523 413.637 167.506C411.85 166.484 409.847 165.826 407.818 165.643C405.789 165.44 403.728 165.718 401.845 166.466C399.958 167.211 398.244 168.362 396.695 169.723C397.4 168.971 398.14 168.248 398.953 167.606C399.778 166.981 400.66 166.423 401.601 165.964C403.481 165.045 405.625 164.573 407.814 164.637C412.193 164.816 416.633 166.977 419.453 170.604C420.834 172.452 421.641 174.617 421.959 176.822C422.283 179.03 422.104 181.301 421.453 183.448C420.147 187.776 416.916 191.371 413.165 193.771C411.281 194.966 409.237 195.978 407.044 196.56C404.864 197.15 402.536 197.308 400.34 196.847C398.141 196.401 396.124 195.359 394.463 193.949C392.792 192.533 391.471 190.787 390.538 188.771C388.795 184.649 389.115 179.966 390.608 175.952C392.17 171.926 395.055 168.589 398.618 166.544Z" fill="#77D9FE"/>
<path d="M409.594 174.021C408.439 172.453 407.268 170.884 406.078 169.316C406.604 168.929 407.128 168.541 407.651 168.154C408.85 169.722 410.03 171.291 411.193 172.859C410.661 173.246 410.128 173.634 409.594 174.021Z" fill="#77D9FE"/>
<path d="M407.025 173.513C406.629 172.967 406.232 172.421 405.832 171.875C407.339 170.795 408.838 169.715 410.328 168.635C410.736 169.181 411.143 169.727 411.547 170.273C410.048 171.353 408.541 172.433 407.025 173.513Z" fill="#77D9FE"/>
<path d="M316.609 244.626C316.609 244.626 327.238 233.743 332.026 228.328C336.814 222.912 348.224 205.748 354.42 206.162C361.378 206.627 356.358 224.707 347.892 234.431C347.892 234.431 359.142 252.37 351.45 262.098C349.786 264.203 337.664 270.858 334.648 270.246L316.609 244.626Z" fill="#AD6359"/>
<path d="M347.382 235.726C352.007 242.555 355.228 252.94 351.915 260.467C351.819 260.687 352.118 260.855 352.245 260.647C356.894 253.057 353.283 241.005 348.778 235.154C347.912 234.029 346.185 233.959 347.382 235.726Z" fill="#263238"/>
<path d="M316.607 244.626L348.555 289.999C348.555 289.999 349.306 299.354 339.78 303.526C330.253 307.698 290.831 321.918 275.225 316.646C259.619 311.373 215.078 273.015 195.867 247.49C176.655 221.965 205.055 227.054 210.457 229.474C215.86 231.895 279.377 261.843 281.64 261.787C283.903 261.731 298.669 250.531 305.621 247.049C312.571 243.568 316.607 244.626 316.607 244.626Z" fill="#77D9FE"/>
<path opacity="0.1" d="M297.986 316.302C288.996 317.951 280.659 318.494 275.233 316.654C259.611 311.37 215.076 273.007 195.865 247.481C194.651 245.866 193.63 244.373 192.773 243.006L297.986 316.302Z" fill="black"/>
<path d="M336.109 299.373C333.182 295.784 330.743 291.786 328.191 287.95C325.675 284.167 323.184 280.368 320.719 276.555C315.744 268.86 310.545 261.218 306.084 253.24C305.979 253.053 306.226 252.888 306.364 253.062C312.125 260.336 317.155 268.193 322.218 275.917C324.758 279.792 327.24 283.703 329.675 287.638C332.019 291.426 334.522 295.217 336.425 299.226C336.515 299.417 336.23 299.521 336.109 299.373Z" fill="#263238"/>
<g opacity="0.1">
<path d="M325.868 308.771C324.708 309.161 323.498 309.561 322.258 309.961C322.058 308.621 321.988 307.281 321.988 305.971C321.978 303.441 322.188 300.991 322.158 298.561C322.148 296.141 321.948 293.731 321.458 291.381C320.968 289.041 320.148 286.791 319.048 284.741C318.778 284.221 318.468 283.711 318.178 283.241C317.908 282.791 317.558 282.321 317.228 281.861C316.518 280.951 315.778 280.011 315.008 279.091L310.408 273.501C308.848 271.621 307.308 269.731 305.788 267.801C304.248 265.871 302.798 263.871 301.418 261.781C300.068 259.661 298.778 257.511 297.748 255.021C297.388 254.151 297.098 253.261 296.848 252.381C298.138 251.531 299.408 250.711 300.608 249.951C301.018 251.051 301.468 252.111 301.978 253.111C302.988 255.051 304.308 257.031 305.628 258.971C308.308 262.871 311.128 266.801 313.958 270.771C315.368 272.761 316.818 274.731 318.138 276.841C318.798 277.891 319.458 278.951 320.048 280.101C320.338 280.681 320.628 281.251 320.888 281.891C321.128 282.521 321.338 283.111 321.518 283.731C322.998 288.651 323.218 293.611 323.788 298.461C324.208 302.021 324.878 305.571 325.868 308.771Z" fill="black"/>
<path d="M313.249 312.681C312.279 312.961 311.309 313.231 310.319 313.491C309.119 309.351 309.049 305.271 308.959 301.241L308.909 295.001C308.899 293.971 308.869 292.951 308.829 291.941C308.779 290.931 308.729 289.921 308.539 289.021C308.499 288.781 308.449 288.601 308.369 288.381L308.119 287.701L307.819 287.041C307.709 286.821 307.579 286.611 307.469 286.391C306.979 285.541 306.359 284.741 305.669 284.001C304.279 282.541 302.599 281.321 300.819 280.271C299.929 279.731 299.009 279.261 298.079 278.781L295.269 277.351C293.399 276.361 291.459 275.271 289.919 273.491C289.539 273.051 289.179 272.561 288.879 272.041C288.729 271.781 288.599 271.501 288.469 271.231L288.159 270.431C287.779 269.361 287.539 268.271 287.349 267.191C286.969 265.031 286.919 262.881 286.969 260.751C286.989 260.121 287.029 259.491 287.079 258.861C287.719 258.451 288.399 258.011 289.109 257.541C289.109 258.611 289.139 259.671 289.199 260.731C289.289 262.771 289.509 264.781 289.879 266.721C290.079 267.691 290.339 268.631 290.659 269.521L290.919 270.181C291.019 270.371 291.089 270.571 291.199 270.771C291.409 271.151 291.629 271.531 291.909 271.901C292.999 273.371 294.519 274.711 296.149 275.961C297.779 277.211 299.549 278.341 301.299 279.491C303.059 280.621 304.839 281.771 306.449 283.191C307.269 283.891 308.029 284.671 308.719 285.541C309.059 285.971 309.369 286.431 309.669 286.911L310.079 287.641C310.209 287.901 310.339 288.201 310.429 288.471C310.819 289.581 310.999 290.641 311.159 291.711C311.329 292.771 311.419 293.831 311.509 294.881C311.679 296.981 311.779 299.061 311.919 301.121C312.049 303.191 312.209 305.241 312.409 307.261C312.589 309.121 312.839 310.961 313.249 312.681Z" fill="black"/>
</g>
<path d="M106.466 385.259C106.563 385.388 243.035 379.015 243.922 378.17C244.333 377.778 246.104 370.011 244.012 359.225C237.738 326.867 218.95 260.794 202.379 232.829C198.243 225.849 179.585 215.545 166.043 228.763C138.589 255.562 117.036 323.773 108.547 361.22C104.397 379.529 105.899 384.477 106.466 385.259Z" fill="#77D9FE"/>
<g opacity="0.1">
<path d="M243.401 356.131C242.991 356.141 242.581 356.161 242.181 356.191C238.501 356.471 234.541 357.221 230.641 358.011C222.791 359.611 214.801 361.411 206.751 363.201C202.721 364.091 198.691 365.031 194.541 365.711C192.461 366.041 190.371 366.371 188.201 366.531C187.101 366.601 186.021 366.681 184.841 366.661C183.711 366.621 182.661 366.551 181.571 366.421C172.921 365.491 165.051 362.561 157.101 360.251C149.161 357.931 140.951 356.361 133.651 356.391C131.851 356.401 129.911 356.541 127.961 356.721C126.021 356.901 124.061 357.191 122.091 357.481C118.161 358.111 114.191 358.901 110.231 359.761C109.751 359.861 109.281 359.971 108.801 360.081C109.281 357.981 109.811 355.781 110.371 353.511C113.791 352.401 117.261 351.421 120.831 350.681C122.911 350.231 125.021 349.871 127.171 349.601C128.251 349.471 129.331 349.361 130.421 349.301C131.491 349.221 132.691 349.201 133.821 349.271C138.401 349.471 142.681 350.831 146.601 352.491C150.541 354.131 154.221 356.071 158.021 357.641C161.811 359.221 165.701 360.511 169.681 361.281C173.651 362.061 177.701 362.271 181.631 361.911C182.601 361.841 183.611 361.691 184.541 361.561C185.421 361.421 186.371 361.191 187.311 360.971C189.211 360.461 191.151 359.931 193.081 359.351L204.851 355.861C208.791 354.671 212.771 353.511 216.781 352.421C220.791 351.301 224.871 350.361 229.041 349.591C233.141 348.891 237.271 348.311 241.711 348.331C242.331 351.071 242.891 353.681 243.401 356.131Z" fill="black"/>
<path d="M237.45 330.76C234.63 329.76 231.78 328.95 228.95 328.34C227.31 328 225.67 327.79 224.07 327.7L222.88 327.67C222.51 327.7 222.15 327.68 221.78 327.72C221.04 327.8 220.3 327.9 219.54 328.08C216.54 328.81 213.43 330.3 210.42 332.01C207.39 333.73 204.46 335.73 201.52 337.72C198.59 339.71 195.63 341.73 192.35 343.3C190.72 344.1 189 344.78 187.2 345.28C186.3 345.53 185.37 345.71 184.44 345.86L183.02 346.01C182.53 346.04 181.97 346.05 181.49 346.01C179.51 345.89 177.73 345.48 175.96 345.02C174.2 344.58 172.49 344.03 170.8 343.47C167.41 342.35 164.1 341.14 160.79 339.99C157.49 338.82 154.18 337.72 150.9 336.7C147.63 335.68 144.34 334.78 141.14 334.3C139.52 334.07 138.08 334.03 136.47 334.2C134.88 334.36 133.25 334.7 131.62 335.11C128.36 335.94 125.1 337.11 121.88 338.39C119.02 339.55 116.17 340.79 113.34 342.11C113.65 340.96 113.97 339.8 114.3 338.62C116.29 337.4 118.32 336.25 120.39 335.16C123.57 333.49 126.87 332.01 130.36 330.82C132.11 330.26 133.92 329.76 135.82 329.45C137.7 329.11 139.82 329.04 141.69 329.23C149.29 329.99 155.98 332.67 162.56 335.3L172.32 339.33C173.93 340 175.55 340.63 177.15 341.24C178.75 341.82 180.36 342.41 181.88 342.71C182.28 342.8 182.6 342.83 183 342.87L184.22 342.92L185.45 342.89C185.87 342.86 186.28 342.81 186.69 342.77C188.35 342.57 189.99 342.13 191.6 341.55C194.8 340.34 197.81 338.52 200.63 336.45C202.04 335.42 203.38 334.28 204.75 333.17L208.83 329.72C211.6 327.46 214.58 325.16 218.38 323.94C219.32 323.63 220.31 323.4 221.32 323.28C221.83 323.21 222.35 323.2 222.86 323.17L224.31 323.21C226.23 323.32 228.08 323.67 229.89 324.09C232.08 324.59 234.18 325.28 236.23 326.07C236.64 327.65 237.05 329.22 237.45 330.76Z" fill="black"/>
</g>
<path d="M151.712 231.986C107.159 250.875 72.5688 267.318 77.5908 284.438C79.5628 291.161 91.1888 309.291 106.134 309.268C117.874 309.25 138.806 290.429 162.648 257.481C174.968 240.454 179.839 220.061 151.712 231.986Z" fill="#77D9FE"/>
<path d="M159.613 266.538C157.71 268.114 155.821 269.718 153.968 271.359C154.363 270.897 154.767 270.445 155.159 269.981C158.346 266.202 161.497 262.393 164.647 258.585C164.713 258.506 164.582 258.405 164.512 258.479C158.515 264.857 152.458 271.18 146.438 277.538C140.438 283.876 124.537 300.01 120.689 303.174C120.61 303.239 120.71 303.371 120.793 303.307C124.272 300.589 134.044 292.41 137.16 289.36C141.87 284.749 146.395 279.992 150.746 275.082C153.943 272.48 156.955 269.655 159.822 266.747C159.932 266.635 159.736 266.436 159.613 266.538Z" fill="#263238"/>
<path d="M93.5251 298.925C74.0411 290.935 61.4201 231.845 56.6431 192.073C55.7341 184.503 115.573 177.207 115.619 185.359C115.881 231.879 114.861 307.674 93.5251 298.925Z" fill="#AD6359"/>
<path d="M49.1154 161.077C49.4704 173.766 60.3404 205.535 65.3454 210.718C70.3504 215.9 108.316 197.764 110.436 190.681C112.557 183.599 114.333 142.067 105.957 132.187C97.5813 122.307 48.7474 147.93 49.1154 161.077Z" fill="#AD6359"/>
<path d="M115.79 149.97C112.472 155.82 107.477 148.561 107.477 148.561C107.477 148.561 112.149 160.742 106.397 165.451C100.84 169.974 95.115 160.993 94.696 160.355C94.938 161.002 98.939 172.307 92.67 176.443C86.152 180.736 81.953 170.734 81.684 170.086C81.72 170.768 82.05 179.795 76.573 181.855C67.161 185.389 65.683 162.331 59.35 157.216C59.35 157.216 49.461 161.808 49.115 162.031C49.115 162.031 47.256 145.273 54.632 137.116C58.521 132.816 63.296 135.592 63.296 135.592C63.296 135.592 61.917 128.594 66.749 125.182C69.234 123.437 74.237 125.86 74.237 125.86C74.237 125.86 73.367 120.211 77.855 117.444C81.429 115.224 85.89 118 85.89 118C85.89 118 87.572 112.188 91.961 111.107C100.806 108.905 122.884 137.437 115.79 149.97Z" fill="#AD6359"/>
<path d="M86.6651 118.328C86.5841 118.239 86.6921 118.108 86.7901 118.185C96.3401 125.797 104.501 137.086 107.791 148.923C107.899 149.311 107.315 149.655 107.115 149.25C101.39 137.699 95.3901 127.903 86.6651 118.328Z" fill="#263238"/>
<path d="M74.1839 125.672C74.0889 125.569 74.2599 125.409 74.3769 125.504C84.1759 133.4 93.0169 146.369 95.2029 160.459C95.2779 160.943 94.8609 161.451 94.7319 160.902C92.5689 151.643 82.0829 134.252 74.1839 125.672Z" fill="#263238"/>
<path d="M81.4992 171.121C78.8812 157.691 72.2222 146.451 63.7232 135.89C63.6122 135.752 63.8182 135.611 63.9422 135.7C69.5082 139.733 74.2232 147.03 77.4122 153.018C80.4662 158.753 82.0702 164.542 81.9682 171.029C81.9642 171.281 81.5542 171.407 81.4992 171.121Z" fill="#263238"/>
<path d="M107.48 148.561C108.149 150.992 108.634 153.471 108.845 155.955C109.029 158.411 108.943 161.007 107.894 163.081C107.37 164.1 106.557 164.908 105.525 165.302C104.471 165.692 103.297 165.874 102.21 165.691C100.016 165.369 98.1076 163.65 96.9536 161.786L94.0516 157.098L95.1476 162.511C95.6266 164.873 95.7986 167.436 95.4826 169.812C95.1746 172.183 94.2356 174.465 92.4236 175.658C90.5556 176.942 88.3226 176.974 86.6236 175.523C84.8866 174.158 83.5706 171.907 82.7166 169.73L80.3296 163.648L80.5946 170.147C80.6666 171.907 80.5206 173.8 80.1316 175.537C79.7316 177.271 79.0416 178.958 77.8626 180.038C76.7116 181.103 74.9646 181.547 73.5846 180.96C72.1236 180.365 70.9146 178.882 69.9106 177.369C67.8956 174.252 66.5236 170.66 64.9866 167.169C64.2296 165.413 63.4716 163.648 62.6286 161.919C61.7646 160.224 60.8686 158.425 59.3516 157.214C60.7256 158.566 61.3976 160.403 62.1446 162.135C62.8456 163.904 63.4636 165.709 64.0836 167.517C65.3246 171.135 66.6156 174.763 68.5706 178.199C69.5976 179.863 70.7706 181.634 72.8396 182.645C74.9836 183.673 77.5636 183.025 79.2046 181.528C80.8846 180.008 81.6776 177.965 82.1706 176.019C82.6396 174.031 82.8256 172.081 82.7756 170.023L80.6536 170.44C81.6426 173.02 82.9306 175.429 85.2006 177.329C86.3226 178.259 87.8596 178.915 89.4436 178.894C91.0346 178.881 92.4586 178.316 93.6796 177.477C96.2096 175.719 97.2526 172.728 97.5546 170.076C97.8596 167.346 97.6386 164.71 97.0606 162.051L95.2546 162.776C96.8026 165.096 99.1306 166.931 102.008 167.261C103.428 167.411 104.807 167.116 106.081 166.566C107.393 165.997 108.424 164.851 108.98 163.606C110.083 161.058 109.854 158.374 109.505 155.875C109.115 153.356 108.415 150.907 107.48 148.561Z" fill="#263238"/>
<path d="M111.62 193.398C111.62 193.398 142.482 136.904 113.668 136.151C106.705 135.969 78.867 147.248 80.877 152.883C83.472 160.161 95.922 157.929 103.515 155.287C103.515 155.287 94.382 171.373 103.685 181.072C109.52 187.156 111.62 193.398 111.62 193.398Z" fill="#AD6359"/>
<path d="M115.62 136.12C112.881 135.899 110.136 136.421 107.46 137C104.772 137.593 102.151 138.441 99.5727 139.389C94.4287 141.354 89.4017 143.45 84.5837 146.326C83.3857 147.065 82.1977 147.868 81.1367 149.027C80.6137 149.602 80.1147 150.325 79.8527 151.174C79.7147 151.596 79.6397 151.976 79.6367 152.538C79.6607 153.027 79.7397 153.478 79.8957 153.88C80.4607 155.538 81.7077 156.715 83.0427 157.51C84.4117 158.263 85.8727 158.662 87.3207 158.89C90.2287 159.311 93.0777 159.006 95.8147 158.459C98.5697 157.939 101.213 157.094 103.823 156.189L102.695 154.801C101.681 156.72 100.938 158.645 100.319 160.656C99.7087 162.658 99.2847 164.719 99.0937 166.805C98.9177 168.892 99.0377 171.009 99.4757 173.046C99.8997 175.088 100.721 177.033 101.863 178.737C100.963 176.894 100.372 174.932 100.132 172.935C99.8797 170.937 99.9997 168.92 100.292 166.945C100.589 164.968 101.104 163.025 101.795 161.148C102.482 159.284 103.339 157.421 104.333 155.774L105.598 153.679L103.205 154.386C100.628 155.147 98.0497 155.924 95.4257 156.329C92.8217 156.761 90.1597 157.047 87.6607 156.638C85.2317 156.267 82.7337 155.129 82.0487 153.138C81.2947 151.442 83.5987 149.529 85.7467 148.149C87.9597 146.704 90.3707 145.463 92.7767 144.227C95.1917 142.993 97.6207 141.792 100.105 140.719C105.088 138.675 110.169 136.549 115.62 136.12Z" fill="#263238"/>
<path d="M118.026 196.854L55.793 210.457C55.793 210.457 51.695 222.256 55.312 234.499C62.179 257.743 82.67 307.631 99.206 306.476C117.098 305.226 121.451 242.858 121.148 212.326C121.047 202.023 118.026 196.854 118.026 196.854Z" fill="#77D9FE"/>
<g opacity="0.1">
<path d="M121.111 221.121C121.091 222.431 121.061 223.781 121.021 225.151C119.521 225.901 117.981 226.611 116.401 227.221C115.231 227.681 114.031 228.101 112.811 228.461C112.191 228.641 111.571 228.821 110.941 228.961C110.331 229.111 109.631 229.231 108.971 229.311C106.281 229.631 103.651 229.261 101.201 228.671C98.7512 228.101 96.4113 227.321 94.0413 226.781C91.6813 226.231 89.2913 225.861 86.9013 225.801C84.5113 225.731 82.1213 226.001 79.8713 226.591C79.3113 226.731 78.7413 226.911 78.2113 227.081C77.7113 227.241 77.1813 227.471 76.6513 227.691C75.6013 228.171 74.5213 228.671 73.4413 229.201L66.9313 232.381C64.7513 233.451 62.5413 234.521 60.3113 235.541C58.9613 236.181 57.5813 236.771 56.1813 237.341C55.8713 236.351 55.5813 235.411 55.3113 234.501C55.1013 233.811 54.9213 233.121 54.7812 232.431C58.1913 231.091 61.6412 229.691 65.1012 228.281C67.3712 227.381 69.6213 226.431 71.9813 225.631C73.1613 225.241 74.3412 224.841 75.5912 224.541C76.2212 224.391 76.8513 224.241 77.5413 224.141C78.2013 224.051 78.8213 223.991 79.4613 223.961C84.6013 223.661 89.4713 224.601 94.3213 225.171C99.1813 225.751 104.121 225.861 108.371 225.141C109.421 224.961 110.531 224.691 111.651 224.391C112.771 224.101 113.881 223.741 115.001 223.371C117.041 222.691 119.071 221.931 121.111 221.121Z" fill="black"/>
<path d="M120.769 232.041C120.739 232.761 120.709 233.481 120.669 234.211C119.849 234.901 119.019 235.571 118.159 236.221C116.469 237.501 114.689 238.681 112.779 239.721C111.809 240.221 110.799 240.681 109.729 241.051C108.659 241.431 107.439 241.671 106.329 241.751C101.819 242.041 97.6694 241.131 93.5694 240.241L87.4894 238.841C86.4894 238.611 85.4894 238.401 84.4894 238.201C83.5094 238.021 82.5094 237.831 81.5894 237.801C81.3494 237.791 81.1594 237.801 80.9294 237.821L80.2094 237.911L79.4894 238.051C79.2594 238.101 79.0194 238.181 78.7794 238.241C77.8394 238.521 76.9194 238.931 76.0394 239.431C74.2894 240.441 72.7194 241.791 71.2794 243.281C70.5494 244.021 69.8794 244.811 69.1894 245.591L67.1494 248.001C65.7594 249.591 64.2394 251.221 62.1494 252.301C61.9494 252.411 61.7394 252.511 61.5194 252.591C61.2094 251.781 60.9094 250.981 60.6094 250.181C60.7594 250.121 60.9194 250.071 61.0694 250.001C62.7494 249.281 64.4094 248.111 65.9994 246.821C67.5994 245.521 69.1094 244.071 70.6294 242.631C72.1494 241.181 73.6794 239.711 75.4394 238.481C76.3094 237.851 77.2394 237.291 78.2394 236.821C78.7494 236.591 79.2694 236.401 79.7994 236.221L80.6094 235.991C80.8894 235.931 81.2194 235.871 81.4994 235.841C82.6594 235.721 83.7394 235.791 84.8194 235.881C85.8894 235.971 86.9394 236.121 87.9794 236.281C90.0594 236.611 92.1094 236.991 94.1494 237.341C96.1894 237.701 98.2194 238.021 100.229 238.291C102.239 238.571 104.249 238.771 106.149 238.741C107.119 238.711 107.969 238.601 108.889 238.341C109.799 238.091 110.709 237.741 111.619 237.341C113.449 236.541 115.229 235.541 116.979 234.481C118.259 233.701 119.519 232.891 120.769 232.041Z" fill="black"/>
</g>
<path d="M117.227 213.603C86.4554 222.244 64.1894 226.249 59.9064 226.919C59.7914 226.937 59.7444 226.779 59.8584 226.744C81.2524 220.185 115.096 213.399 117.174 213.229C117.399 213.211 117.426 213.547 117.227 213.603Z" fill="#263238"/>
<path d="M120.262 250.598C119.537 256.43 117.876 265.681 116.53 271.403C116.445 271.763 116.357 272.123 116.272 272.484C116.638 274.543 116.86 276.596 116.845 278.704C116.828 281.137 116.629 283.55 116.383 285.969C116.372 286.072 116.215 286.059 116.223 285.955C116.4 283.556 116.343 281.128 116.159 278.732C116.049 277.298 115.935 275.86 115.809 274.423C114.503 279.885 113.122 285.336 111.42 290.686C111.388 290.788 111.247 290.73 111.268 290.632C112.554 284.82 113.925 279.023 114.996 273.166C116.056 267.363 118.508 253.591 119.531 247.781C120.339 243.184 120.488 248.775 120.262 250.598Z" fill="#263238"/>
<path d="M176.987 226.311C177.71 228.443 189.502 241.588 199.427 240.15C202.659 239.676 200.858 221.921 200.858 221.921L201.025 220.58L203.343 201.806L177.113 188.531C177.113 188.529 176.693 225.403 176.987 226.311Z" fill="#AD6359"/>
<path d="M203.339 201.811L201.014 220.575L200.854 221.926C200.854 221.926 201.175 225.14 201.304 228.866C187.52 228.169 180.299 218.569 176.902 211.788C176.96 201.143 177.113 188.531 177.113 188.531L203.339 201.811Z" fill="#263238"/>
<path d="M232.596 169.798C242.169 209.181 219.662 219.362 211.167 221.417C203.456 223.282 176.961 228.655 163.369 190.472C149.777 152.288 165.062 135.387 182.473 130.187C199.885 124.987 223.023 130.414 232.596 169.798Z" fill="#AD6359"/>
<path d="M221.281 170.933C220.326 170.984 219.434 170.871 218.484 170.823C217.411 170.769 216.551 170.836 215.653 170.166C215.171 169.807 215.055 168.931 215.36 168.431C216.07 167.264 217.4 167.004 218.694 167.016C220.098 167.029 221.178 167.399 222.256 168.294C223.301 169.163 222.542 170.867 221.281 170.933Z" fill="#263238"/>
<path d="M193.264 176.933C194.183 176.664 194.986 176.263 195.867 175.904C196.862 175.498 197.695 175.278 198.323 174.348C198.659 173.85 198.479 172.985 198.025 172.613C196.969 171.746 195.628 171.94 194.411 172.38C193.09 172.857 192.194 173.563 191.473 174.764C190.772 175.93 192.052 177.287 193.264 176.933Z" fill="#263238"/>
<path d="M205.12 204.129C205.846 204.701 206.597 205.514 207.602 205.491C208.566 205.468 209.638 204.916 210.477 204.482C210.56 204.439 210.658 204.521 210.611 204.61C210.012 205.74 208.585 206.561 207.289 206.476C206.024 206.393 205.293 205.385 204.87 204.282C204.81 204.127 205.014 204.046 205.12 204.129Z" fill="#263238"/>
<path d="M215.056 197.578C215.056 197.578 213.929 200.584 211.67 202.199C210.838 202.798 209.877 203.215 208.752 203.236C206.441 203.287 205.822 201.33 205.732 199.53C205.654 198.05 205.955 196.67 205.955 196.67C205.955 196.67 209.935 198.709 215.056 197.578Z" fill="white"/>
<path d="M213.677 200.131C213.569 200.278 213.45 200.45 213.324 200.604C212.598 200.663 211.858 200.686 211.129 200.58C211.991 200.446 212.847 200.294 213.677 200.131Z" fill="#DBDBDB"/>
<path d="M208.814 200.416C208.25 200.411 207.689 200.363 207.136 200.228C206.658 200.126 206.206 199.931 205.754 199.736C205.75 199.675 205.74 199.596 205.736 199.535C205.736 199.431 205.718 199.334 205.719 199.23C206.703 199.713 207.751 200.046 208.814 200.416Z" fill="#DBDBDB"/>
<path d="M214.868 192.398C214.868 192.398 216.105 196.37 216.424 198.289C216.453 198.468 216.003 198.631 215.358 198.777C215.329 198.792 215.314 198.807 215.284 198.792C211.985 199.883 208.381 199.281 205.863 196.858C205.7 196.692 205.91 196.454 206.104 196.545C208.941 197.981 211.814 197.996 214.826 197.547C214.873 196.994 212.471 190.74 212.78 190.741C214.091 190.745 216.432 190.937 217.299 191.004C216.555 188.405 214.073 181.131 212.724 176.395C212.64 176.098 213.087 175.925 213.204 176.188C216.295 183.105 217.799 186.755 219.537 192.317C219.674 192.75 215.69 192.597 214.868 192.398Z" fill="#263238"/>
<path d="M195.452 184.302C195.468 183.658 195.641 182.972 196.041 182.335C196.441 181.699 197.199 181.283 197.939 181.165C198.704 181.044 199.57 181.394 200.061 181.934C200.552 182.474 200.866 183.082 201.045 183.705C201.162 184.1 201.23 184.5 201.287 184.902C201.392 185.756 201.35 186.612 201.066 187.409C201.023 186.784 200.907 186.179 200.733 185.605C200.574 185.054 200.383 184.544 200.156 184.049C199.674 183.027 198.931 182.219 198.084 182.385C197.181 182.483 196.615 183.299 196.404 184.421C196.19 185.519 196.173 186.719 196.183 187.941C195.678 186.822 195.396 185.593 195.452 184.302Z" fill="#263238"/>
<path d="M222.689 179.037C222.431 178.447 222.013 177.876 221.403 177.437C220.793 176.998 219.934 176.898 219.204 177.068C218.45 177.244 217.78 177.895 217.528 178.58C217.276 179.265 217.215 179.946 217.284 180.59C217.324 181 217.412 181.396 217.511 181.79C217.735 182.62 218.097 183.398 218.66 184.029C218.465 183.433 218.344 182.829 218.288 182.232C218.228 181.662 218.213 181.117 218.237 180.574C218.298 179.445 218.682 178.417 219.529 178.252C220.403 178.003 221.235 178.545 221.853 179.505C222.465 180.441 222.933 181.547 223.384 182.682C223.43 181.456 223.228 180.211 222.689 179.037Z" fill="#263238"/>
<path d="M159.473 194.019C171.522 194.152 176.941 179.474 173.452 168.127C173.452 168.127 205.608 170.475 205.624 144.77C205.624 144.77 212.55 155.518 227.044 155.043L231.168 164.275C234.385 163.136 237.319 153.628 228.881 146.805C228.881 146.805 227.575 134.07 217.71 126.962C207.846 119.855 198.79 125.445 198.79 125.445C198.79 125.445 190.937 119.64 179.271 121.84C167.605 124.039 163.401 135.044 163.401 135.044C163.401 135.044 147.773 138.999 145.745 150.385C143.717 161.771 149.964 168.956 149.964 168.956C149.964 168.956 146.259 173.6 148.839 183.062C150.498 189.146 155.856 193.979 159.473 194.019Z" fill="#263238"/>
<path d="M204.784 142.537C205.119 144.615 205.325 146.707 205.224 148.788C205.227 150.869 204.914 152.923 204.424 154.907C203.365 158.856 201.012 162.393 197.58 164.537C194.266 166.949 190.034 167.547 185.992 168.185C183.921 168.245 181.837 168.452 179.75 168.395C177.661 168.308 175.569 168.171 173.453 168.126C175.521 168.503 177.614 168.786 179.71 169.119C181.814 169.324 183.946 169.246 186.077 169.32C190.279 168.899 194.706 168.281 198.393 165.772C202.06 163.351 204.663 159.412 205.528 155.171C206.378 150.933 206.045 146.556 204.784 142.537Z" fill="#263238"/>
<path d="M163.403 135.041C159.396 135.312 155.423 136.405 151.793 138.287C148.165 140.147 144.977 143.191 143.365 147.109C142.639 149.093 142.275 151.148 142.208 153.199C142.078 155.252 142.301 157.345 142.875 159.324C143.983 163.293 146.528 166.854 149.967 168.952C146.915 166.367 144.802 162.821 143.979 159.042C143.18 155.303 143.362 151.169 144.741 147.653C145.422 145.877 146.486 144.266 147.786 142.851C149.139 141.486 150.667 140.276 152.351 139.274C155.712 137.27 159.501 135.912 163.403 135.041Z" fill="#263238"/>
<path d="M198.793 125.443C201.779 124.18 204.913 123.333 208.061 123.076C211.203 122.829 214.376 123.244 217.182 124.542C219.992 125.835 222.338 128.002 224.21 130.544C226.057 133.111 227.487 136.02 228.534 139.089C228.08 135.86 226.889 132.733 225.153 129.906C223.416 127.079 220.888 124.651 217.802 123.198C214.705 121.801 211.208 121.41 207.932 121.949C204.65 122.46 201.505 123.635 198.793 125.443Z" fill="#263238"/>
<path d="M222.106 156.371C218.478 155.287 215.066 153.849 212.12 151.731C210.616 150.716 209.334 149.433 208.156 148.056C206.93 146.689 206.113 145.037 205.188 143.367C205.525 145.224 206.124 147.115 207.234 148.725C208.274 150.371 209.662 151.814 211.259 152.933C212.858 154.048 214.606 154.942 216.452 155.503C218.291 156.071 220.195 156.437 222.106 156.371Z" fill="#263238"/>
<path d="M196.756 199.278C190.455 199.719 184.397 195.867 182.326 189.6C179.877 182.187 183.913 174.166 191.323 171.717C198.736 169.266 206.755 173.301 209.206 180.712C211.654 188.121 207.619 196.144 200.209 198.595C199.065 198.973 197.907 199.198 196.756 199.278ZM194.908 172.922C193.912 172.991 192.908 173.185 191.918 173.513C185.498 175.635 182.003 182.585 184.122 189.006C186.246 195.423 193.199 198.927 199.614 196.799C206.034 194.676 209.53 187.727 207.41 181.306C205.614 175.878 200.368 172.54 194.908 172.922Z" fill="#77D9FE"/>
<path d="M227.42 193.16C222.017 193.539 216.727 188.348 215.354 181.091C214.661 177.429 215.052 173.777 216.455 170.812C217.902 167.742 220.256 165.758 223.079 165.224C225.912 164.683 228.818 165.678 231.288 168.006C233.676 170.258 235.372 173.513 236.063 177.174C237.511 184.843 234.047 191.961 228.34 193.041C228.033 193.099 227.727 193.138 227.42 193.16ZM224.144 166.993C223.906 167.01 223.668 167.04 223.432 167.085C221.221 167.502 219.35 169.113 218.164 171.62C216.934 174.228 216.595 177.467 217.212 180.739C218.47 187.383 223.288 192.075 227.988 191.181C232.672 190.296 235.459 184.169 234.206 177.527C233.586 174.255 232.089 171.363 229.989 169.383C228.188 167.685 226.138 166.853 224.144 166.993Z" fill="#77D9FE"/>
<path d="M209.18 182.383L207.945 181.372C209.441 179.543 213.174 176.757 216.616 179.28L215.673 180.566C212.592 178.302 209.318 182.217 209.18 182.383Z" fill="#77D9FE"/>
<path d="M153.162 196.121L151.633 195.665C151.847 194.952 153.812 188.664 157.205 187.434C160.379 186.293 181.765 184.289 182.673 184.205L182.82 185.794C176.688 186.362 160.198 188.046 157.75 188.934C155.509 189.746 153.679 194.397 153.162 196.121Z" fill="#77D9FE"/>
<path d="M171.734 192.284C171.734 192.284 161.076 181.117 155.879 185.104C150.682 189.091 160.032 206.211 167.074 207.671C174.115 209.131 175.594 202.639 175.594 202.639L171.734 192.284Z" fill="#AD6359"/>
<path d="M158.68 189.945C158.571 189.952 158.573 190.106 158.672 190.129C163.633 191.306 166.754 195.261 169.165 199.488C167.511 197.972 165.474 197.315 163.412 199.322C163.304 199.427 163.45 199.6 163.577 199.552C165.428 198.849 166.859 198.97 168.386 200.304C169.467 201.249 170.303 202.525 171.151 203.677C171.433 204.061 172.153 203.722 171.92 203.266C171.903 203.233 171.883 203.198 171.865 203.164C171.071 197.19 165.166 189.566 158.68 189.945Z" fill="#263238"/>
<path d="M160.616 229.027C158.982 226.998 169.526 221.017 172.274 223.282C175.022 225.547 188.877 260.727 184.377 298.896C179.877 337.066 105.967 378.167 103.251 372.461C102.11 370.065 103.569 363.372 105.366 361.232C107.902 358.213 161.246 325.111 166.517 301.442C171.204 280.396 164.782 234.199 160.616 229.027Z" fill="#455A64"/>
<path d="M202.21 228.205C199.993 223.993 211.417 227.382 212.672 229.647C213.928 231.913 229.205 268.387 231.837 292.229C232.891 301.777 236.595 327.488 236.595 327.488C236.595 327.488 225.427 292.97 216.232 264.119C210.356 245.681 203.123 229.94 202.21 228.205Z" fill="#455A64"/>
<path d="M418.512 378.756C418.512 378.756 430.21 336.55 439.552 322.216C448.894 307.882 466.307 292.137 466.307 292.137C466.307 292.137 465.898 357.209 418.512 378.756Z" fill="#53E1B1"/>
<path d="M419.348 378.033C423.356 371.484 426.761 364.577 430.012 357.583C431.451 350.093 433.202 342.553 435.821 335.39C435.87 335.254 436.059 335.329 436.027 335.464C434.475 342.133 432.669 348.741 431.029 355.389C435.751 345.118 440.239 334.715 445.864 325.005C447 320.298 449.152 315.771 451.286 311.5C451.348 311.376 451.552 311.443 451.492 311.574C449.991 314.88 448.911 318.286 447.843 321.705C450.502 317.407 453.417 313.265 456.73 309.364C456.935 309.122 457.345 309.39 457.143 309.649C449.623 319.297 444.433 330.271 439.489 341.384C444.832 335.642 449.691 329.36 454.167 322.942C454.213 322.876 454.313 322.945 454.27 323.013C449.649 330.398 444.327 337.022 438.552 343.496C434.951 351.638 431.411 359.812 427.12 367.557C435.697 360.27 442.294 350.84 448.825 341.741C448.972 341.536 449.286 341.752 449.147 341.964C442.614 351.947 435.853 361.348 426.453 368.742C424.531 372.127 422.473 375.435 420.173 378.604C419.793 379.128 419.011 378.585 419.348 378.033Z" fill="#263238"/>
<path d="M414.885 382.557C414.885 382.557 435.911 343.64 429.803 305.909C423.695 268.177 417.155 254.742 417.155 254.742C417.155 254.742 384.104 313.428 414.885 382.557Z" fill="#53E1B1"/>
<path d="M406.253 321.376C407.931 332.272 410.874 342.472 414.37 352.8C414.429 338.953 414.691 325.105 415.059 311.261C412.638 302.843 411.422 294.226 411.091 285.473C411.081 285.217 411.461 285.232 411.482 285.48C412.105 293.012 413.42 300.361 415.165 307.671C415.484 296.248 415.861 284.826 416.274 273.409C416.281 273.217 416.571 273.222 416.571 273.414C416.554 291.256 416.563 309.102 416.451 326.946C419.165 320.073 420.866 312.999 422.512 305.747C422.528 305.678 422.64 305.695 422.635 305.766C422.003 314.099 419.483 322.156 416.429 329.889C416.347 341.295 416.224 352.701 415.972 364.104C419.529 351.978 423.328 340.235 424.357 327.421C424.371 327.251 424.626 327.252 424.623 327.426C424.344 341.557 420.721 355.901 416.084 369.189C416.032 369.338 415.946 369.441 415.85 369.524C415.744 373.692 415.627 377.861 415.487 382.028C415.467 382.626 414.576 382.608 414.564 382.011C414.4 373.483 414.342 364.955 414.357 356.426C409.634 345.466 407.12 333.242 406.067 321.397C406.059 321.292 406.237 321.271 406.253 321.376Z" fill="#263238"/>
<path d="M407.694 315.358C408.36 318.701 408.984 322.233 409.162 325.639C409.168 325.757 408.99 325.772 408.962 325.663C408.092 322.361 407.617 318.804 407.232 315.412C407.202 315.149 407.643 315.1 407.694 315.358Z" fill="#263238"/>
<path d="M419.987 286.91C420.007 286.793 420.185 286.83 420.186 286.941C420.215 289.28 419.745 291.785 419.132 294.032C419.08 294.22 418.81 294.133 418.847 293.948C419.306 291.608 419.589 289.255 419.987 286.91Z" fill="#263238"/>
<path d="M407.218 385.537C407.218 385.537 408.075 344.914 396.482 324.721C384.888 304.528 365.66 294.24 365.66 294.24C365.66 294.24 373.413 365.849 407.218 385.537Z" fill="#53E1B1"/>
<path d="M386.091 350.794C390.965 357.849 395.807 364.647 401.78 370.785C399.466 362.478 396.778 354.316 393.755 346.285C387.256 340.557 380.81 334.62 376.822 326.782C376.758 326.656 376.937 326.549 377.012 326.671C381.299 333.613 387.032 339.168 393.065 344.511C388.435 332.445 383.049 320.671 376.927 309.184C376.771 308.892 377.195 308.642 377.37 308.924C381.083 314.911 384.451 321.108 387.489 327.465C386.403 323.122 385.534 318.682 384.421 314.371C384.39 314.25 384.562 314.207 384.605 314.32C386.661 319.748 388.707 325.75 389.366 331.55C393.422 340.554 396.838 349.852 399.572 359.35C399.274 353.26 398.894 347.196 398.269 341.124C398.257 341.009 398.45 340.982 398.471 341.096C399.728 347.839 400.387 354.699 400.227 361.558C401.898 367.612 403.305 373.737 404.433 379.91C404.463 380.075 404.22 380.149 404.179 379.98C403.55 377.393 402.866 374.827 402.168 372.267C402.124 372.248 402.077 372.256 402.036 372.214C395.817 365.953 389.912 358.814 386.03 350.831C386.007 350.788 386.064 350.755 386.091 350.794Z" fill="#263238"/>
<path d="M372.657 317.74C373.95 319.142 375.134 320.617 376.382 322.062C377.485 323.339 378.831 324.543 379.72 325.981C379.755 326.037 379.686 326.107 379.63 326.071C378.134 325.117 376.936 323.575 375.775 322.247C374.551 320.846 373.45 319.464 372.474 317.883C372.404 317.77 372.566 317.641 372.657 317.74Z" fill="#263238"/>
<path d="M441.662 380.576L440.201 393.601L435.796 432.973H397.392L392.988 393.601L391.527 380.576C393.159 380.576 416.589 380.576 416.589 380.576C416.589 380.576 440.03 380.576 441.662 380.576Z" fill="#455A64"/>
<path d="M441.662 380.576L440.201 393.601H392.988L391.527 380.576C393.159 380.576 416.589 380.576 416.589 380.576C416.589 380.576 440.03 380.576 441.662 380.576Z" fill="#37474F"/>
<path d="M388.115 385.887H445.074V371.135H388.115V385.887Z" fill="#455A64"/>
<path d="M389.651 419.406H274.75V433.003H389.651V419.406Z" fill="#37474F"/>
<path d="M301.974 419.406H297.289V433.003H301.974V419.406Z" fill="#455A64"/>
<path d="M376.129 419.406H364.902V433.003H376.129V419.406Z" fill="#455A64"/>
<path d="M381.376 379.65H264.02V397.617H381.376V379.65Z" fill="#37474F"/>
<path d="M360.612 385.479H332.426V391.788H360.612V385.479Z" fill="#63F3FD"/>
<path d="M374.749 388.634C374.749 390.561 373.083 392.123 371.029 392.123C368.974 392.123 367.309 390.561 367.309 388.634C367.309 386.707 368.975 385.145 371.029 385.145C373.084 385.145 374.749 386.707 374.749 388.634Z" fill="#63F3FD"/>
<path d="M317.65 363.752H258.363V379.614H317.65V363.752Z" fill="#263238"/>
<path d="M372.457 363.752H317.652V379.614H372.457V363.752Z" fill="#263238"/>
<path d="M317.65 365.398H258.363V377.968H317.65V365.398Z" fill="white"/>
<path d="M263.523 367.983C269.735 367.895 275.947 367.832 282.159 367.8L290.587 367.744L309.223 367.799C315.435 367.831 311.439 367.895 317.651 367.983C311.439 368.072 315.435 368.135 309.223 368.167L290.587 368.222L282.159 368.166C275.947 368.134 269.735 368.07 263.523 367.983Z" fill="#DBDBDB"/>
<path d="M263.523 370.45C269.735 370.362 275.947 370.299 282.159 370.267L290.587 370.211L309.223 370.266C315.435 370.298 311.439 370.362 317.651 370.45C311.439 370.539 315.435 370.602 309.223 370.634L290.587 370.689L282.159 370.633C275.947 370.601 269.735 370.537 263.523 370.45Z" fill="#DBDBDB"/>
<path d="M263.523 372.917C269.735 372.829 275.947 372.766 282.159 372.734L290.587 372.678L309.223 372.733C315.435 372.765 311.439 372.829 317.651 372.917C311.439 373.006 315.435 373.069 309.223 373.101L290.587 373.156L282.159 373.1C275.947 373.068 269.735 373.004 263.523 372.917Z" fill="#DBDBDB"/>
<path d="M263.523 375.382C269.735 375.294 275.947 375.231 282.159 375.199L290.587 375.143L309.223 375.198C315.435 375.23 311.439 375.293 317.651 375.382C311.439 375.471 315.435 375.534 309.223 375.566L290.587 375.621L282.159 375.565C275.947 375.534 269.735 375.47 263.523 375.382Z" fill="#DBDBDB"/>
<path d="M337.508 363.752H329.793V379.614H337.508V363.752Z" fill="#455A64"/>
<path d="M369.62 363.752H364.434V379.614H369.62V363.752Z" fill="#455A64"/>
<path d="M309.771 419.406H376.543V397.607H309.771V419.406Z" fill="#63F3FD"/>
<path d="M259.069 419.406H309.77V397.607H259.069V419.406Z" fill="#63F3FD"/>
<path d="M309.771 417.145H376.543V399.87H309.771V417.145Z" fill="white"/>
<path d="M372.222 413.591C367.018 413.679 361.813 413.742 356.609 413.774L340.996 413.83L325.383 413.775C320.179 413.743 314.974 413.679 309.77 413.591C314.974 413.502 320.178 413.439 325.383 413.407L340.996 413.352L356.609 413.408C361.813 413.44 367.018 413.504 372.222 413.591Z" fill="#DBDBDB"/>
<path d="M372.222 410.202C367.018 410.29 361.813 410.353 356.609 410.385L340.996 410.441L325.383 410.386C320.179 410.354 314.974 410.291 309.77 410.202C314.974 410.114 320.178 410.05 325.383 410.018L340.996 409.963L356.609 410.019C361.813 410.051 367.018 410.115 372.222 410.202Z" fill="#DBDBDB"/>
<path d="M372.222 406.813C367.018 406.901 361.813 406.964 356.609 406.996L340.996 407.052L325.383 406.997C320.179 406.965 314.974 406.902 309.77 406.813C314.974 406.724 320.178 406.661 325.383 406.629L340.996 406.574L356.609 406.63C361.813 406.662 367.018 406.726 372.222 406.813Z" fill="#DBDBDB"/>
<path d="M372.222 403.423C367.018 403.511 361.813 403.574 356.609 403.606L340.996 403.662L325.383 403.607C320.179 403.575 314.974 403.512 309.77 403.423C314.974 403.334 320.178 403.271 325.383 403.239L340.996 403.184L356.609 403.24C361.813 403.272 367.018 403.336 372.222 403.423Z" fill="#DBDBDB"/>
<path d="M276.638 397.607H267.148V419.406H276.638V397.607Z" fill="#455A64"/>
<path d="M314.918 103.657C314.918 123.386 298.916 139.387 279.188 139.387C271.215 139.387 263.854 136.772 257.902 132.341L240.398 136.81L247.685 120.512C244.978 115.487 243.458 109.739 243.458 103.658C243.458 83.9287 259.46 67.9277 279.188 67.9277C298.916 67.9267 314.918 83.9277 314.918 103.657Z" fill="white"/>
<path d="M314.92 103.656C314.85 110.221 313.136 116.823 309.615 122.407C308.824 123.856 307.741 125.111 306.78 126.446C305.657 127.649 304.628 128.946 303.361 130.007C302.737 130.543 302.179 131.16 301.501 131.631L299.528 133.121C298.869 133.615 298.137 134.003 297.444 134.449L296.391 135.098C296.034 135.303 295.654 135.467 295.287 135.654C294.545 136.013 293.809 136.387 293.06 136.733L290.74 137.598C289.976 137.919 289.172 138.109 288.373 138.318C287.57 138.508 286.785 138.784 285.967 138.904C284.335 139.16 282.708 139.476 281.05 139.5C279.4 139.63 277.744 139.622 276.093 139.49C272.794 139.223 269.529 138.503 266.42 137.349C263.316 136.182 260.372 134.589 257.691 132.627L257.992 132.686L240.509 137.235L239.629 137.464L239.999 136.63L247.247 120.315L247.263 120.74C244.643 115.923 243.18 110.485 243.007 105.008C242.905 99.5424 243.819 94.0014 246.131 89.0214C248.375 84.0274 251.763 79.5664 255.948 76.0544C260.132 72.5354 265.159 70.0704 270.441 68.7694C275.73 67.4824 281.307 67.3774 286.619 68.5314C291.927 69.7074 296.939 72.1044 301.196 75.4524C309.819 82.0724 314.944 92.8364 314.92 103.656ZM314.92 103.656C314.891 92.8354 309.718 82.1244 301.1 75.5734C296.823 72.2884 291.814 69.9744 286.546 68.8734C281.273 67.7944 275.764 67.9694 270.573 69.3004C265.388 70.6454 260.483 73.1264 256.428 76.6234C252.382 80.1234 249.115 84.5044 246.937 89.3784C244.704 94.2464 243.844 99.6494 243.966 104.971C244.176 110.302 245.601 115.576 248.11 120.282L248.222 120.492L248.125 120.707L240.8 136.988L240.291 136.383L257.815 131.995L257.981 131.953L258.116 132.054C260.72 134.008 263.591 135.608 266.63 136.793C269.673 137.965 272.88 138.714 276.133 139.017C277.76 139.167 279.397 139.195 281.028 139.086C282.668 139.083 284.28 138.789 285.9 138.556C286.711 138.447 287.491 138.183 288.289 138.004C289.083 137.806 289.884 137.628 290.644 137.318L292.956 136.487C293.703 136.153 294.438 135.79 295.18 135.442C295.547 135.261 295.927 135.103 296.284 134.903L297.338 134.271C298.032 133.836 298.765 133.459 299.427 132.975L301.404 131.511C302.082 131.046 302.64 130.434 303.264 129.902C304.532 128.852 305.562 127.564 306.688 126.37C307.652 125.044 308.738 123.798 309.534 122.356C313.074 116.805 314.818 110.221 314.92 103.656Z" fill="#263238"/>
<path d="M273.403 124.916L257.391 108.708L262.77 103.394L272.124 112.861L291.556 82.3965L297.933 86.4625L273.403 124.916Z" fill="#77D9FE"/>
</svg>
