<svg width="56" height="57" viewBox="0 0 56 57" fill="none" xmlns="http://www.w3.org/2000/svg">
<path d="M32.375 20.7489C33.3033 20.7489 34.1935 21.1176 34.8499 21.774C35.5063 22.4304 35.875 23.3206 35.875 24.2489M39.375 24.2489C39.3752 25.2699 39.152 26.2785 38.7211 27.2041C38.2902 28.1297 37.6621 28.9498 36.8808 29.607C36.0994 30.2642 35.1838 30.7425 34.198 31.0084C33.2123 31.2743 32.1803 31.3213 31.1745 31.1462C30.5177 31.0331 29.8223 31.1766 29.351 31.6479L26.25 34.7489H23.625V37.3739H21V39.9989H16.625V36.7112C16.625 36.0147 16.9015 35.3462 17.3938 34.8551L24.976 27.2729C25.4473 26.8016 25.5908 26.1062 25.4777 25.4494C25.3122 24.4941 25.347 23.5148 25.5799 22.5737C25.8128 21.6325 26.2386 20.75 26.8304 19.9821C27.4222 19.2141 28.1671 18.5775 29.0178 18.1125C29.8686 17.6475 30.8066 17.3643 31.7726 17.2809C32.7385 17.1975 33.7112 17.3156 34.6291 17.6278C35.547 17.94 36.39 18.4395 37.1047 19.0945C37.8195 19.7496 38.3903 20.546 38.7811 21.4333C39.1719 22.3206 39.3742 23.2794 39.375 24.2489Z" stroke="#545962" stroke-width="1.5" stroke-linecap="round" stroke-linejoin="round"/>
<rect x="0.5" y="1.1239" width="55" height="55" rx="11.5" stroke="#ADB5C2"/>
</svg>
