<svg width="48" height="32" viewBox="0 0 48 32" fill="none" xmlns="http://www.w3.org/2000/svg">
<path d="M40 0C41.0609 0 42.0783 0.421427 42.8284 1.17157C43.5786 1.92172 44 2.93913 44 4V24C44 26.22 42.22 28 40 28H48V32H0V28H8C6.93913 28 5.92172 27.5786 5.17157 26.8284C4.42143 26.0783 4 25.0609 4 24V4C4 1.78 5.78 0 8 0H40ZM40 4H8V24H40V4ZM24 16C28.42 16 32 17.8 32 20V22H16V20C16 17.8 19.58 16 24 16ZM24 6C25.0609 6 26.0783 6.42143 26.8284 7.17157C27.5786 7.92172 28 8.93913 28 10C28 11.0609 27.5786 12.0783 26.8284 12.8284C26.0783 13.5786 25.0609 14 24 14C21.78 14 20 12.22 20 10C20 7.78 21.8 6 24 6Z" fill="#E8063C"/>
</svg>
