<svg width="234" height="70" viewBox="0 0 234 70" fill="none" xmlns="http://www.w3.org/2000/svg">
<rect width="234" height="70" fill="white"/>
<path fill-rule="evenodd" clip-rule="evenodd" d="M38.9417 19.2002C39.4618 19.2002 39.8834 19.6219 39.8834 20.1419V43.3417C39.8834 44.2085 40.5861 44.9112 41.4529 44.9112H73.4671C74.3339 44.9112 75.0366 44.2085 75.0366 43.3417V20.1419C75.0366 19.6219 75.4583 19.2002 75.9783 19.2002C76.4984 19.2002 76.9201 19.6219 76.9201 20.1419V43.3417C76.9201 45.2487 75.3741 46.7946 73.4671 46.7946H41.4529C39.5459 46.7946 38 45.2487 38 43.3417V20.1419C38 19.6219 38.4216 19.2002 38.9417 19.2002Z" fill="#490D59"/>
<path fill-rule="evenodd" clip-rule="evenodd" d="M53.0379 19.097C50.6735 18.6914 48.2708 18.6914 45.9064 19.097L45.0315 19.2471C43.5215 19.5061 42.4028 21.0159 42.4028 22.7946V41.811C47.0142 40.1996 51.9301 40.1996 56.5415 41.811V22.7946C56.5415 21.0159 55.4228 19.5061 53.9128 19.2471L53.0379 19.097ZM45.6824 17.3233C48.1954 16.8922 50.7489 16.8922 53.2619 17.3233L54.1369 17.4734C56.4017 17.8619 58.0799 20.1266 58.0799 22.7946V43.0187C58.0799 43.3024 57.9647 43.5694 57.7692 43.7385C57.5737 43.9076 57.321 43.9589 57.088 43.8767L56.1549 43.5477C51.7973 42.0112 47.147 42.0112 42.7894 43.5477L41.8563 43.8767C41.6233 43.9589 41.3706 43.9076 41.1751 43.7385C40.9796 43.5694 40.8644 43.3024 40.8644 43.0187V22.7946C40.8644 20.1266 42.5426 17.8619 44.8074 17.4734L45.6824 17.3233Z" fill="#490D59"/>
<path fill-rule="evenodd" clip-rule="evenodd" d="M68.7151 19.097C66.3507 18.6914 63.948 18.6914 61.5836 19.097L60.7087 19.2471C59.1987 19.5061 58.0799 21.0159 58.0799 22.7946V41.811C62.6914 40.1996 67.6072 40.1996 72.2187 41.811V22.7946C72.2187 21.0159 71.0999 19.5061 69.59 19.2471L68.7151 19.097ZM61.3596 17.3233C63.8725 16.8922 66.4261 16.8922 68.9391 17.3233L69.814 17.4734C72.0789 17.8619 73.7571 20.1266 73.7571 22.7946V43.0187C73.7571 43.3024 73.6419 43.5694 73.4463 43.7385C73.2508 43.9076 72.9982 43.9589 72.7652 43.8767L71.832 43.5477C67.4745 42.0112 62.8242 42.0112 58.4666 43.5477L57.5335 43.8767C57.3005 43.9589 57.0478 43.9076 56.8523 43.7385C56.6568 43.5694 56.5415 43.3024 56.5415 43.0187V22.7946C56.5415 20.1266 58.2197 17.8619 60.4846 17.4734L61.3596 17.3233Z" fill="#490D59"/>
<path fill-rule="evenodd" clip-rule="evenodd" d="M57.5433 44.9112C58.0633 44.9112 58.485 45.3328 58.485 45.8529V50.5124H62.9612C63.4813 50.5124 63.9029 50.934 63.9029 51.4541C63.9029 51.9742 63.4813 52.3958 62.9612 52.3958H51.6606C51.1405 52.3958 50.7189 51.9742 50.7189 51.4541C50.7189 50.934 51.1405 50.5124 51.6606 50.5124H56.6015V45.8529C56.6015 45.3328 57.0232 44.9112 57.5433 44.9112Z" fill="#490D59"/>
<path d="M100.861 47.3521H97.9637V44.5704C96.5728 46.4635 94.2933 47.8158 91.6661 47.8158C86.798 47.8158 83.3594 44.1067 83.3594 38.0409C83.3594 32.0523 86.798 28.2274 91.6661 28.2274C94.1774 28.2274 96.4569 29.4637 97.9637 31.5114V28.691H100.861V47.3521ZM92.4002 45.2272C94.6797 45.2272 96.9592 43.8749 97.9637 42.2522V33.8296C96.9592 32.2069 94.6797 30.816 92.4002 30.816C88.6138 30.816 86.373 33.9069 86.373 38.0409C86.373 42.1749 88.6138 45.2272 92.4002 45.2272Z" fill="#490D59"/>
<path d="M110.644 47.8158C107.862 47.8158 106.471 46.2317 106.471 43.4499V31.241H103.38V28.691H106.471V23.5911H109.407V28.691H113.194V31.241H109.407V42.8317C109.407 44.2226 110.026 45.2272 111.262 45.2272C112.112 45.2272 112.846 44.8408 113.232 44.4158L114.082 46.618C113.348 47.3135 112.305 47.8158 110.644 47.8158Z" fill="#490D59"/>
<path d="M120.61 47.8158C117.867 47.8158 116.476 46.2317 116.476 43.4499V21.582H119.373V42.8317C119.373 44.2226 119.992 45.2272 121.267 45.2272C122.078 45.2272 122.851 44.8408 123.198 44.4158L124.087 46.618C123.314 47.3135 122.31 47.8158 120.61 47.8158Z" fill="#490D59"/>
<path d="M134.54 47.8158C128.977 47.8158 124.997 43.8363 124.997 38.0023C124.997 32.5932 128.861 28.2274 134.192 28.2274C139.833 28.2274 143.156 32.6319 143.156 38.2341V38.9682H128.088C128.32 42.484 130.754 45.4203 134.772 45.4203C136.935 45.4203 139.06 44.5703 140.567 43.0249L141.958 44.9181C140.065 46.7726 137.554 47.8158 134.54 47.8158ZM140.297 36.8045C140.258 34.0614 138.404 30.6228 134.154 30.6228C130.174 30.6228 128.204 33.9841 128.049 36.8045H140.297Z" fill="#490D59"/>
<path d="M163.497 47.3521H160.599V44.5704C159.208 46.4635 156.929 47.8158 154.301 47.8158C149.433 47.8158 145.995 44.1067 145.995 38.0409C145.995 32.0523 149.433 28.2274 154.301 28.2274C156.813 28.2274 159.092 29.4637 160.599 31.5114V28.691H163.497V47.3521ZM155.035 45.2272C157.315 45.2272 159.594 43.8749 160.599 42.2522V33.8296C159.594 32.2069 157.315 30.816 155.035 30.816C151.249 30.816 149.008 33.9069 149.008 38.0409C149.008 42.1749 151.249 45.2272 155.035 45.2272Z" fill="#490D59"/>
<path d="M171.425 47.3521H168.527V28.691H171.425V31.666C172.931 29.7342 175.095 28.266 177.645 28.266V31.241C177.297 31.2024 176.95 31.1637 176.525 31.1637C174.709 31.1637 172.275 32.6319 171.425 34.1387V47.3521Z" fill="#490D59"/>
<path d="M196 47.3521H193.141V35.1432C193.141 31.8205 191.441 30.816 188.93 30.816C186.65 30.816 184.525 32.2069 183.405 33.7137V47.3521H180.507V28.691H183.405V31.3955C184.718 29.8115 187.268 28.2274 190.089 28.2274C193.952 28.2274 196 30.1978 196 34.2546V47.3521Z" fill="#490D59"/>
<path d="M82.5811 58.75V53.9156H83.2617V58.75H82.5811ZM84.3375 58.75V55.1342H84.9352L84.965 55.6123H84.9816C85.1233 55.4374 85.2938 55.3035 85.493 55.2105C85.6922 55.1154 85.9135 55.0678 86.157 55.0678C86.54 55.0678 86.8443 55.1751 87.0701 55.3898C87.2981 55.6046 87.4121 55.9654 87.4121 56.4723V58.75H86.7514V56.4656C86.7514 56.1668 86.6816 55.9532 86.5422 55.8248C86.4049 55.6964 86.209 55.6322 85.9545 55.6322C85.7376 55.6322 85.5472 55.6887 85.3834 55.8016C85.2196 55.9122 85.0901 56.0561 84.9949 56.2332V58.75H84.3375ZM88.1359 57.6875H88.7934V57.7041C88.7934 57.9055 88.8753 58.0594 89.0391 58.1656C89.2029 58.2697 89.4187 58.3217 89.6865 58.3217C89.9544 58.3217 90.1635 58.2719 90.3141 58.1723C90.4668 58.0704 90.5432 57.9421 90.5432 57.7871C90.5432 57.6277 90.4834 57.506 90.3639 57.4219C90.2443 57.3355 89.9743 57.2503 89.5537 57.1662C89.1354 57.0821 88.8166 56.9537 88.5975 56.7811C88.3783 56.6084 88.2688 56.3727 88.2688 56.0738C88.2688 55.775 88.396 55.5271 88.6506 55.3301C88.9074 55.1331 89.2527 55.0346 89.6865 55.0346C90.1292 55.0346 90.4801 55.1364 90.7391 55.34C91.0003 55.5415 91.1309 55.8071 91.1309 56.1369V56.1535H90.4768V56.1369C90.4768 55.9598 90.4126 55.8193 90.2842 55.7152C90.1558 55.6112 89.9566 55.5592 89.6865 55.5592C89.4165 55.5592 89.2217 55.6057 89.1021 55.6986C88.9826 55.7916 88.9229 55.9045 88.9229 56.0373C88.9229 56.1745 88.9837 56.2841 89.1055 56.366C89.2294 56.4457 89.5006 56.5276 89.9189 56.6117C90.3395 56.6958 90.6583 56.8264 90.8752 57.0035C91.0943 57.1806 91.2039 57.4296 91.2039 57.7506C91.2039 58.0715 91.0766 58.335 90.8221 58.5408C90.5697 58.7467 90.1912 58.8496 89.6865 58.8496C89.1818 58.8496 88.7967 58.7456 88.5311 58.5375C88.2676 58.3272 88.1359 58.0494 88.1359 57.7041V57.6875ZM91.9609 60.1313V55.1342H92.5586L92.5885 55.6057H92.6051C92.7025 55.4574 92.8519 55.3312 93.0533 55.2271C93.2548 55.1209 93.4894 55.0678 93.7572 55.0678C94.2354 55.0678 94.6172 55.2393 94.9027 55.5824C95.1905 55.9255 95.3344 56.3605 95.3344 56.8873V56.9936C95.3344 57.5204 95.1905 57.9564 94.9027 58.3018C94.6172 58.6449 94.2354 58.8164 93.7572 58.8164C93.4894 58.8164 93.2603 58.7721 93.0699 58.6836C92.8818 58.5928 92.7313 58.4722 92.6184 58.3217V60.1313H91.9609ZM92.6184 57.651C92.6936 57.8104 92.8165 57.9531 92.9869 58.0793C93.1574 58.2033 93.3643 58.2652 93.6078 58.2652C93.9708 58.2652 94.2365 58.1435 94.4047 57.9C94.5751 57.6543 94.6604 57.3521 94.6604 56.9936V56.8873C94.6604 56.5309 94.5751 56.231 94.4047 55.9875C94.2365 55.7418 93.9708 55.6189 93.6078 55.6189C93.3643 55.6189 93.1574 55.682 92.9869 55.8082C92.8165 55.9322 92.6936 56.0738 92.6184 56.2332V57.651ZM96.1412 58.75V55.1342H96.7986V58.75H96.1412ZM96.0781 54.1049C96.0781 53.9986 96.1113 53.909 96.1777 53.8359C96.2464 53.7629 96.3438 53.7264 96.4699 53.7264C96.5961 53.7264 96.6924 53.7629 96.7588 53.8359C96.8274 53.909 96.8617 53.9986 96.8617 54.1049C96.8617 54.2133 96.8274 54.3041 96.7588 54.3771C96.6924 54.4502 96.5961 54.4867 96.4699 54.4867C96.3438 54.4867 96.2464 54.4502 96.1777 54.3771C96.1113 54.3041 96.0781 54.2133 96.0781 54.1049ZM97.8113 58.75V55.1342H98.409L98.4389 55.6023H98.4555C98.5529 55.4518 98.6801 55.3201 98.8373 55.2072C98.9967 55.0921 99.1859 55.0346 99.4051 55.0346C99.456 55.0346 99.5091 55.0401 99.5645 55.0512C99.622 55.0622 99.6618 55.0722 99.684 55.0811V55.7086C99.6375 55.6997 99.5888 55.6931 99.5379 55.6887C99.487 55.6842 99.4305 55.682 99.3686 55.682C99.1494 55.682 98.9635 55.7363 98.8107 55.8447C98.658 55.9532 98.544 56.0871 98.4688 56.2465V58.75H97.8113ZM100.305 58.75V55.1342H100.962V58.75H100.305ZM100.242 54.1049C100.242 53.9986 100.275 53.909 100.341 53.8359C100.41 53.7629 100.507 53.7264 100.634 53.7264C100.76 53.7264 100.856 53.7629 100.922 53.8359C100.991 53.909 101.025 53.9986 101.025 54.1049C101.025 54.2133 100.991 54.3041 100.922 54.3771C100.856 54.4502 100.76 54.4867 100.634 54.4867C100.507 54.4867 100.41 54.4502 100.341 54.3771C100.275 54.3041 100.242 54.2133 100.242 54.1049ZM101.975 58.75V55.1342H102.573L102.603 55.6123H102.619C102.761 55.4374 102.931 55.3035 103.13 55.2105C103.33 55.1154 103.551 55.0678 103.795 55.0678C104.177 55.0678 104.482 55.1751 104.708 55.3898C104.936 55.6046 105.05 55.9654 105.05 56.4723V58.75H104.389V56.4656C104.389 56.1668 104.319 55.9532 104.18 55.8248C104.042 55.6964 103.847 55.6322 103.592 55.6322C103.375 55.6322 103.185 55.6887 103.021 55.8016C102.857 55.9122 102.728 56.0561 102.632 56.2332V58.75H101.975ZM105.936 59.693L106.318 59.1883C106.429 59.3034 106.582 59.4041 106.779 59.4904C106.979 59.5768 107.201 59.6199 107.447 59.6199C107.774 59.6199 108.032 59.5347 108.221 59.3643C108.411 59.196 108.506 58.9581 108.506 58.6504V58.3217C108.393 58.4722 108.242 58.5928 108.051 58.6836C107.863 58.7721 107.635 58.8164 107.367 58.8164C106.889 58.8164 106.506 58.6449 106.218 58.3018C105.933 57.9564 105.79 57.5204 105.79 56.9936V56.8873C105.79 56.3605 105.933 55.9255 106.218 55.5824C106.506 55.2393 106.889 55.0678 107.367 55.0678C107.635 55.0678 107.87 55.1209 108.071 55.2271C108.273 55.3312 108.422 55.4574 108.519 55.6057H108.536L108.566 55.1342H109.163V58.6504C109.163 59.1484 109.006 59.5303 108.692 59.7959C108.378 60.0637 107.969 60.1977 107.467 60.1977C107.155 60.1977 106.867 60.1501 106.604 60.0549C106.34 59.9597 106.118 59.8391 105.936 59.693ZM106.464 56.9936C106.464 57.3521 106.548 57.6543 106.716 57.9C106.887 58.1435 107.154 58.2652 107.517 58.2652C107.76 58.2652 107.967 58.2033 108.138 58.0793C108.308 57.9531 108.431 57.8104 108.506 57.651V56.2332C108.431 56.0738 108.308 55.9322 108.138 55.8082C107.967 55.682 107.76 55.6189 107.517 55.6189C107.154 55.6189 106.887 55.7418 106.716 55.9875C106.548 56.231 106.464 56.5309 106.464 56.8873V56.9936ZM111.883 58.75V53.9156H112.806L114.24 57.4086C114.267 57.475 114.294 57.5447 114.323 57.6178C114.352 57.6908 114.379 57.7594 114.403 57.8236H114.433C114.455 57.7594 114.479 57.6908 114.506 57.6178C114.535 57.5447 114.562 57.475 114.589 57.4086L115.993 53.9156H116.953V58.75H116.292V55.2238C116.292 55.1574 116.293 55.0833 116.296 55.0014C116.3 54.9173 116.307 54.842 116.315 54.7756H116.279C116.257 54.842 116.23 54.9173 116.199 55.0014C116.17 55.0833 116.143 55.1574 116.116 55.2238L114.698 58.75H114.107L112.66 55.2238C112.633 55.1574 112.606 55.0833 112.577 55.0014C112.55 54.9173 112.531 54.842 112.52 54.7756H112.48C112.487 54.842 112.494 54.9173 112.5 55.0014C112.507 55.0833 112.51 55.1574 112.51 55.2238V58.75H111.883ZM118.042 58.75V55.1342H118.699V58.75H118.042ZM117.979 54.1049C117.979 53.9986 118.012 53.909 118.079 53.8359C118.147 53.7629 118.245 53.7264 118.371 53.7264C118.497 53.7264 118.593 53.7629 118.66 53.8359C118.728 53.909 118.762 53.9986 118.762 54.1049C118.762 54.2133 118.728 54.3041 118.66 54.3771C118.593 54.4502 118.497 54.4867 118.371 54.4867C118.245 54.4867 118.147 54.4502 118.079 54.3771C118.012 54.3041 117.979 54.2133 117.979 54.1049ZM119.712 58.75V55.1342H120.31L120.34 55.6123H120.356C120.498 55.4374 120.668 55.3035 120.868 55.2105C121.067 55.1154 121.288 55.0678 121.532 55.0678C121.915 55.0678 122.219 55.1751 122.445 55.3898C122.673 55.6046 122.787 55.9654 122.787 56.4723V58.75H122.126V56.4656C122.126 56.1668 122.056 55.9532 121.917 55.8248C121.78 55.6964 121.584 55.6322 121.329 55.6322C121.112 55.6322 120.922 55.6887 120.758 55.8016C120.594 55.9122 120.465 56.0561 120.37 56.2332V58.75H119.712ZM123.527 56.9936V56.8873C123.527 56.3605 123.67 55.9255 123.955 55.5824C124.243 55.2393 124.626 55.0678 125.104 55.0678C125.372 55.0678 125.6 55.1132 125.788 55.2039C125.979 55.2924 126.13 55.412 126.243 55.5625V53.65H126.901V58.75H126.303L126.273 58.2785H126.256C126.159 58.4268 126.01 58.5541 125.808 58.6604C125.607 58.7644 125.372 58.8164 125.104 58.8164C124.626 58.8164 124.243 58.6449 123.955 58.3018C123.67 57.9564 123.527 57.5204 123.527 56.9936ZM124.201 56.9936C124.201 57.3521 124.285 57.6543 124.454 57.9C124.624 58.1435 124.891 58.2652 125.254 58.2652C125.497 58.2652 125.704 58.2033 125.875 58.0793C126.045 57.9531 126.168 57.8104 126.243 57.651V56.2332C126.168 56.0738 126.045 55.9322 125.875 55.8082C125.704 55.682 125.497 55.6189 125.254 55.6189C124.891 55.6189 124.624 55.7418 124.454 55.9875C124.285 56.231 124.201 56.5309 124.201 56.8873V56.9936ZM127.661 57.6875H128.318V57.7041C128.318 57.9055 128.4 58.0594 128.564 58.1656C128.728 58.2697 128.944 58.3217 129.212 58.3217C129.479 58.3217 129.689 58.2719 129.839 58.1723C129.992 58.0704 130.068 57.9421 130.068 57.7871C130.068 57.6277 130.008 57.506 129.889 57.4219C129.769 57.3355 129.499 57.2503 129.079 57.1662C128.66 57.0821 128.342 56.9537 128.122 56.7811C127.903 56.6084 127.794 56.3727 127.794 56.0738C127.794 55.775 127.921 55.5271 128.176 55.3301C128.432 55.1331 128.778 55.0346 129.212 55.0346C129.654 55.0346 130.005 55.1364 130.264 55.34C130.525 55.5415 130.656 55.8071 130.656 56.1369V56.1535H130.002V56.1369C130.002 55.9598 129.938 55.8193 129.809 55.7152C129.681 55.6112 129.482 55.5592 129.212 55.5592C128.941 55.5592 128.747 55.6057 128.627 55.6986C128.508 55.7916 128.448 55.9045 128.448 56.0373C128.448 56.1745 128.509 56.2841 128.63 56.366C128.754 56.4457 129.026 56.5276 129.444 56.6117C129.865 56.6958 130.183 56.8264 130.4 57.0035C130.619 57.1806 130.729 57.4296 130.729 57.7506C130.729 58.0715 130.602 58.335 130.347 58.5408C130.095 58.7467 129.716 58.8496 129.212 58.8496C128.707 58.8496 128.322 58.7456 128.056 58.5375C127.793 58.3272 127.661 58.0494 127.661 57.7041V57.6875ZM131.353 59.4871C131.462 59.341 131.545 59.1916 131.602 59.0389C131.662 58.8861 131.692 58.7068 131.692 58.501V57.9664H132.323V58.501C132.323 58.7555 132.267 58.9891 132.157 59.2016C132.048 59.4141 131.903 59.5978 131.722 59.7527L131.353 59.4871ZM134.996 56.4689V56.1967C134.996 55.4485 135.198 54.8652 135.603 54.4469C136.008 54.0263 136.528 53.816 137.164 53.816C137.797 53.816 138.316 54.0263 138.721 54.4469C139.128 54.8652 139.332 55.4485 139.332 56.1967V56.4689C139.332 57.2171 139.128 57.8015 138.721 58.2221C138.316 58.6404 137.797 58.8496 137.164 58.8496C136.528 58.8496 136.008 58.6404 135.603 58.2221C135.198 57.8015 134.996 57.2171 134.996 56.4689ZM135.683 56.4689C135.683 57.0268 135.818 57.465 136.088 57.7838C136.36 58.1003 136.719 58.2586 137.164 58.2586C137.609 58.2586 137.966 58.1003 138.236 57.7838C138.508 57.465 138.645 57.0268 138.645 56.4689V56.1967C138.645 55.6389 138.508 55.2017 138.236 54.8852C137.966 54.5664 137.609 54.407 137.164 54.407C136.719 54.407 136.36 54.5664 136.088 54.8852C135.818 55.2017 135.683 55.6389 135.683 56.1967V56.4689ZM140.205 58.75V55.1342H140.803L140.833 55.6123H140.849C140.991 55.4374 141.161 55.3035 141.361 55.2105C141.56 55.1154 141.781 55.0678 142.025 55.0678C142.408 55.0678 142.712 55.1751 142.938 55.3898C143.166 55.6046 143.28 55.9654 143.28 56.4723V58.75H142.619V56.4656C142.619 56.1668 142.549 55.9532 142.41 55.8248C142.273 55.6964 142.077 55.6322 141.822 55.6322C141.605 55.6322 141.415 55.6887 141.251 55.8016C141.087 55.9122 140.958 56.0561 140.863 56.2332V58.75H140.205ZM144.02 56.9936V56.8873C144.02 56.3428 144.176 55.8979 144.488 55.5525C144.803 55.2072 145.217 55.0346 145.73 55.0346C146.248 55.0346 146.645 55.1962 146.922 55.5193C147.201 55.8425 147.34 56.2786 147.34 56.8275V57.1064H144.429V56.5785H146.673V56.5885C146.673 56.2985 146.601 56.0583 146.457 55.868C146.316 55.6754 146.073 55.5791 145.73 55.5791C145.391 55.5791 145.132 55.7053 144.953 55.9576C144.776 56.21 144.688 56.5199 144.688 56.8873V56.9936C144.688 57.361 144.78 57.672 144.966 57.9266C145.155 58.1789 145.445 58.3051 145.836 58.3051C146.078 58.3051 146.285 58.2564 146.457 58.159C146.632 58.0616 146.773 57.9454 146.879 57.8104L147.304 58.1689C147.187 58.3372 147.002 58.4932 146.749 58.6371C146.499 58.7788 146.195 58.8496 145.836 58.8496C145.25 58.8496 144.8 58.677 144.488 58.3316C144.176 57.9863 144.02 57.5403 144.02 56.9936ZM149.638 56.4689V56.1967C149.638 55.4485 149.841 54.8652 150.246 54.4469C150.651 54.0263 151.159 53.816 151.77 53.816C152.383 53.816 152.851 53.9765 153.174 54.2975C153.5 54.6162 153.684 55.0003 153.729 55.4496L153.732 55.4828H153.051L153.048 55.4496C153.021 55.1906 152.907 54.9527 152.706 54.7357C152.505 54.5166 152.193 54.407 151.77 54.407C151.349 54.407 151.003 54.5664 150.73 54.8852C150.46 55.2017 150.325 55.6389 150.325 56.1967V56.4689C150.325 57.0268 150.46 57.465 150.73 57.7838C151.003 58.1003 151.349 58.2586 151.77 58.2586C152.193 58.2586 152.505 58.1501 152.706 57.9332C152.907 57.7141 153.021 57.475 153.048 57.216L153.051 57.1828H153.732L153.729 57.216C153.684 57.6654 153.5 58.0505 153.174 58.3715C152.851 58.6902 152.383 58.8496 151.77 58.8496C151.159 58.8496 150.651 58.6404 150.246 58.2221C149.841 57.8015 149.638 57.2171 149.638 56.4689ZM154.542 58.75V53.65H155.2V58.75H154.542ZM156.239 58.75V55.1342H156.896V58.75H156.239ZM156.176 54.1049C156.176 53.9986 156.209 53.909 156.275 53.8359C156.344 53.7629 156.441 53.7264 156.568 53.7264C156.694 53.7264 156.79 53.7629 156.856 53.8359C156.925 53.909 156.959 53.9986 156.959 54.1049C156.959 54.2133 156.925 54.3041 156.856 54.3771C156.79 54.4502 156.694 54.4867 156.568 54.4867C156.441 54.4867 156.344 54.4502 156.275 54.3771C156.209 54.3041 156.176 54.2133 156.176 54.1049ZM157.7 56.9936V56.8873C157.7 56.3428 157.855 55.8979 158.165 55.5525C158.477 55.2072 158.905 55.0346 159.45 55.0346C159.954 55.0346 160.337 55.1641 160.598 55.423C160.862 55.682 160.994 55.9709 160.994 56.2896V56.3062H160.353V56.2896C160.353 56.1037 160.281 55.9399 160.137 55.7982C159.995 55.6544 159.766 55.5824 159.45 55.5824C159.08 55.5824 158.808 55.7086 158.633 55.9609C158.46 56.2133 158.374 56.5221 158.374 56.8873V56.9936C158.374 57.361 158.46 57.6709 158.633 57.9232C158.808 58.1756 159.08 58.3018 159.45 58.3018C159.766 58.3018 159.995 58.2309 160.137 58.0893C160.281 57.9454 160.353 57.7805 160.353 57.5945V57.5779H160.994V57.5945C160.994 57.9133 160.862 58.2021 160.598 58.4611C160.337 58.7201 159.954 58.8496 159.45 58.8496C158.905 58.8496 158.477 58.677 158.165 58.3316C157.855 57.9863 157.7 57.5403 157.7 56.9936ZM161.734 58.75V53.65H162.391V56.7711L163.965 55.1342H164.746L162.391 57.5049V58.75H161.734ZM164.154 58.75L162.677 56.8408L163.112 56.3893L164.948 58.75H164.154ZM166.555 58.75L168.468 53.8857H169.118L171.031 58.75H170.314L168.946 55.1475C168.912 55.0656 168.884 54.987 168.859 54.9117C168.837 54.8365 168.816 54.759 168.796 54.6793H168.76C168.742 54.759 168.721 54.8365 168.697 54.9117C168.672 54.987 168.645 55.0656 168.614 55.1475L167.232 58.75H166.555ZM167.375 57.5182L167.588 56.9471L169.982 56.9537L170.194 57.5248L167.375 57.5182ZM170.964 55.6521V55.1342H173.113V55.6521H170.964ZM171.638 57.8469V55.443V55.3434V54.3937H172.296V57.8469C172.296 58.0018 172.329 58.1125 172.396 58.1789C172.462 58.2453 172.566 58.2785 172.708 58.2785C172.774 58.2785 172.838 58.2719 172.9 58.2586C172.964 58.2453 173.03 58.2276 173.096 58.2055V58.75C173.034 58.7766 172.954 58.7998 172.857 58.8197C172.76 58.8396 172.653 58.8496 172.538 58.8496C172.264 58.8496 172.045 58.7688 171.881 58.6072C171.719 58.4456 171.638 58.1922 171.638 57.8469ZM174.942 58.75L176.855 53.8857H177.505L179.418 58.75H178.701L177.333 55.1475C177.3 55.0656 177.271 54.987 177.246 54.9117C177.224 54.8365 177.203 54.759 177.183 54.6793H177.147C177.129 54.759 177.108 54.8365 177.084 54.9117C177.059 54.987 177.032 55.0656 177.001 55.1475L175.62 58.75H174.942ZM175.762 57.5182L175.975 56.9471L178.369 56.9537L178.581 57.5248L175.762 57.5182ZM181.018 54.4834V53.9156H184.983V54.4834H183.339V58.75H182.662V54.4834H181.018ZM185.584 58.75V55.1342H186.241V58.75H185.584ZM185.521 54.1049C185.521 53.9986 185.554 53.909 185.62 53.8359C185.689 53.7629 185.786 53.7264 185.913 53.7264C186.039 53.7264 186.135 53.7629 186.201 53.8359C186.27 53.909 186.304 53.9986 186.304 54.1049C186.304 54.2133 186.27 54.3041 186.201 54.3771C186.135 54.4502 186.039 54.4867 185.913 54.4867C185.786 54.4867 185.689 54.4502 185.62 54.3771C185.554 54.3041 185.521 54.2133 185.521 54.1049ZM187.254 58.75V55.1342H187.852L187.881 55.6123H187.898C188.038 55.4396 188.204 55.3057 188.396 55.2105C188.589 55.1154 188.803 55.0678 189.04 55.0678C189.295 55.0678 189.514 55.1176 189.698 55.2172C189.884 55.3146 190.024 55.4706 190.119 55.6854H190.136C190.298 55.4662 190.478 55.309 190.677 55.2139C190.876 55.1165 191.102 55.0678 191.354 55.0678C191.746 55.0678 192.053 55.1762 192.274 55.3932C192.498 55.6079 192.61 55.9676 192.61 56.4723V58.75H191.952V56.4656C191.95 56.1668 191.882 55.9532 191.75 55.8248C191.619 55.6964 191.432 55.6322 191.188 55.6322C190.978 55.6322 190.794 55.6887 190.637 55.8016C190.482 55.9122 190.357 56.0561 190.262 56.2332V58.75H189.601V56.4656C189.601 56.1668 189.535 55.9532 189.402 55.8248C189.269 55.6964 189.081 55.6322 188.838 55.6322C188.627 55.6322 188.444 55.6887 188.287 55.8016C188.132 55.9122 188.007 56.0561 187.911 56.2332V58.75H187.254ZM193.353 56.9936V56.8873C193.353 56.3428 193.509 55.8979 193.821 55.5525C194.136 55.2072 194.55 55.0346 195.063 55.0346C195.581 55.0346 195.979 55.1962 196.255 55.5193C196.534 55.8425 196.674 56.2786 196.674 56.8275V57.1064H193.762V56.5785H196.006V56.5885C196.006 56.2985 195.934 56.0583 195.79 55.868C195.649 55.6754 195.406 55.5791 195.063 55.5791C194.725 55.5791 194.466 55.7053 194.286 55.9576C194.109 56.21 194.021 56.5199 194.021 56.8873V56.9936C194.021 57.361 194.114 57.672 194.3 57.9266C194.488 58.1789 194.778 58.3051 195.17 58.3051C195.411 58.3051 195.618 58.2564 195.79 58.159C195.965 58.0616 196.106 57.9454 196.212 57.8104L196.637 58.1689C196.52 58.3372 196.335 58.4932 196.083 58.6371C195.832 58.7788 195.528 58.8496 195.17 58.8496C194.583 58.8496 194.134 58.677 193.821 58.3316C193.509 57.9863 193.353 57.5403 193.353 56.9936Z" fill="#444444"/>
</svg>
