<svg width="32" height="32" viewBox="0 0 32 32" fill="none" xmlns="http://www.w3.org/2000/svg">
<path fill-rule="evenodd" clip-rule="evenodd" d="M4.55871 7.30566C4.86728 7.30566 5.11741 7.55586 5.11741 7.86437V21.6287C5.11741 22.143 5.53432 22.5599 6.04859 22.5599H25.0424C25.5567 22.5599 25.9736 22.143 25.9736 21.6287V7.86437C25.9736 7.55586 26.2238 7.30566 26.5323 7.30566C26.8409 7.30566 27.0911 7.55586 27.0911 7.86437V21.6287C27.0911 22.7601 26.1739 23.6773 25.0424 23.6773H6.04859C4.91717 23.6773 4 22.7601 4 21.6287V7.86437C4 7.55586 4.25013 7.30566 4.55871 7.30566Z" fill="url(#paint0_linear_367_86)"/>
<path fill-rule="evenodd" clip-rule="evenodd" d="M12.9236 7.24415C11.5209 7.00351 10.0953 7.00351 8.69256 7.24415L8.17349 7.33321C7.27762 7.48687 6.6139 8.38263 6.6139 9.43792V20.7202C9.34982 19.7642 12.2664 19.7642 15.0023 20.7202V9.43792C15.0023 8.38263 14.3386 7.48687 13.4427 7.33321L12.9236 7.24415ZM8.55967 6.19183C10.0506 5.93606 11.5656 5.93606 13.0565 6.19183L13.5757 6.28088C14.9194 6.51138 15.915 7.85501 15.915 9.43792V21.4368C15.915 21.6051 15.8467 21.7635 15.7307 21.8638C15.6147 21.9641 15.4648 21.9946 15.3265 21.9458L14.7729 21.7506C12.1876 20.839 9.4286 20.839 6.84326 21.7506L6.28966 21.9458C6.15142 21.9946 6.0015 21.9641 5.88551 21.8638C5.76952 21.7635 5.70117 21.6051 5.70117 21.4368V9.43792C5.70117 7.85501 6.69684 6.51138 8.04053 6.28088L8.55967 6.19183Z" fill="url(#paint1_linear_367_86)"/>
<path fill-rule="evenodd" clip-rule="evenodd" d="M22.496 7.24415C21.0932 7.00351 19.6677 7.00351 18.2649 7.24415L17.7458 7.33321C16.8499 7.48687 16.1862 8.38263 16.1862 9.43792V20.7202C18.9221 19.7642 21.8387 19.7642 24.5746 20.7202V9.43792C24.5746 8.38263 23.9109 7.48687 23.015 7.33321L22.496 7.24415ZM18.132 6.19183C19.6229 5.93606 21.1379 5.93606 22.6289 6.19183L23.1479 6.28088C24.4917 6.51138 25.4874 7.85501 25.4874 9.43792V21.4368C25.4874 21.6051 25.419 21.7635 25.303 21.8638C25.187 21.9641 25.0371 21.9946 24.8989 21.9458L24.3452 21.7506C21.7599 20.839 19.0009 20.839 16.4156 21.7506L15.862 21.9458C15.7237 21.9946 15.5738 21.9641 15.4578 21.8638C15.3418 21.7635 15.2734 21.6051 15.2734 21.4368V9.43792C15.2734 7.85501 16.2691 6.51138 17.6129 6.28088L18.132 6.19183Z" fill="url(#paint2_linear_367_86)"/>
<path fill-rule="evenodd" clip-rule="evenodd" d="M15.5938 22.5596C15.9023 22.5596 16.1525 22.8097 16.1525 23.1183V25.8827H18.8082C19.1168 25.8827 19.3669 26.1329 19.3669 26.4414C19.3669 26.75 19.1168 27.0001 18.8082 27.0001H12.1036C11.7951 27.0001 11.5449 26.75 11.5449 26.4414C11.5449 26.1329 11.7951 25.8827 12.1036 25.8827H15.035V23.1183C15.035 22.8097 15.2852 22.5596 15.5938 22.5596Z" fill="url(#paint3_linear_367_86)"/>
<defs>
<linearGradient id="paint0_linear_367_86" x1="15.2726" y1="2.44053" x2="15.2726" y2="28.8421" gradientUnits="userSpaceOnUse">
<stop stop-color="#018ABE"/>
<stop offset="1" stop-color="#00307F"/>
</linearGradient>
<linearGradient id="paint1_linear_367_86" x1="10.5275" y1="-7.64578" x2="10.5275" y2="22.019" gradientUnits="userSpaceOnUse">
<stop stop-color="#018ABE"/>
<stop offset="1" stop-color="#00307F"/>
</linearGradient>
<linearGradient id="paint2_linear_367_86" x1="20.0998" y1="-7.64578" x2="20.0998" y2="22.019" gradientUnits="userSpaceOnUse">
<stop stop-color="#018ABE"/>
<stop offset="1" stop-color="#00307F"/>
</linearGradient>
<linearGradient id="paint3_linear_367_86" x1="15.2716" y1="21.1291" x2="15.2716" y2="31.8084" gradientUnits="userSpaceOnUse">
<stop stop-color="#00307F"/>
<stop offset="1" stop-color="#018ABE"/>
</linearGradient>
</defs>
</svg>
