<svg width="55" height="47" viewBox="0 0 55 47" fill="none" xmlns="http://www.w3.org/2000/svg">
<path d="M11.3408 0.843628C9.22794 0.843628 7.20159 1.65274 5.70755 3.09296C4.21351 4.53318 3.37417 6.48654 3.37417 8.52332V17.2382C4.36203 16.7836 5.43594 16.4672 6.56083 16.3105V8.52332C6.56083 7.30125 7.06444 6.12923 7.96086 5.2651C8.85729 4.40097 10.0731 3.9155 11.3408 3.9155H33.6475C34.9152 3.9155 36.131 4.40097 37.0275 5.2651C37.9239 6.12923 38.4275 7.30125 38.4275 8.52332V30.0264C38.4275 31.2485 37.9239 32.4205 37.0275 33.2847C36.131 34.1488 34.9152 34.6343 33.6475 34.6343H32.0542V37.7061H33.6475C35.7604 37.7061 37.7867 36.897 39.2808 35.4568C40.7748 34.0166 41.6142 32.0632 41.6142 30.0264V26.9546L49.2622 32.4839C49.7356 32.8262 50.2986 33.0347 50.888 33.0859C51.4774 33.1371 52.07 33.0291 52.5993 32.774C53.1286 32.5189 53.5738 32.1267 53.8849 31.6414C54.196 31.1561 54.3608 30.5969 54.3608 30.0264V8.52332C54.3608 7.95283 54.196 7.39362 53.8849 6.90834C53.5738 6.42305 53.1286 6.03087 52.5993 5.77575C52.07 5.52062 51.4774 5.41262 50.888 5.46385C50.2986 5.51509 49.7356 5.72352 49.2622 6.06581L41.6142 11.5952V8.52332C41.6142 6.48654 40.7748 4.53318 39.2808 3.09296C37.7867 1.65274 35.7604 0.843628 33.6475 0.843628H11.3408ZM41.6142 15.435L51.1742 8.52332V30.0264L41.6142 23.1147V15.435ZM0.1875 26.9546C0.1875 24.9178 1.02684 22.9644 2.52088 21.5242C4.01492 20.084 6.04128 19.2749 8.15417 19.2749H20.9008C23.0137 19.2749 25.0401 20.084 26.5341 21.5242C28.0282 22.9644 28.8675 24.9178 28.8675 26.9546V39.2421C28.8675 41.2788 28.0282 43.2322 26.5341 44.6724C25.0401 46.1126 23.0137 46.9218 20.9008 46.9218H8.15417C6.04128 46.9218 4.01492 46.1126 2.52088 44.6724C1.02684 43.2322 0.1875 41.2788 0.1875 39.2421V26.9546ZM12.9979 27.059C12.7913 26.9222 12.5512 26.8398 12.3013 26.8198C12.0515 26.7999 11.8006 26.8432 11.5735 26.9454C11.3869 27.0237 11.218 27.1364 11.0763 27.2771C10.7795 27.5704 10.6136 27.964 10.6143 28.3738V37.8198C10.6121 38.0234 10.6519 38.2255 10.7312 38.4142C10.8105 38.603 10.9278 38.7747 11.0763 38.9195C11.2228 39.0592 11.3931 39.1735 11.5798 39.2574C11.9032 39.4002 12.27 39.4221 12.6091 39.3189C12.7561 39.2723 12.8955 39.2061 13.0234 39.1223L20.34 34.3086C20.5625 34.1671 20.7418 33.971 20.8594 33.7403C20.9805 33.508 21.0427 33.2513 21.0411 32.9912C21.0394 32.7312 20.9739 32.4753 20.8498 32.2443C20.7244 32.0166 20.5399 31.824 20.3145 31.6853L12.9979 27.059Z" fill="#001B48"/>
</svg>
