<svg width="39" height="36" viewBox="0 0 39 36" fill="none" xmlns="http://www.w3.org/2000/svg">
<path fill-rule="evenodd" clip-rule="evenodd" d="M0.9417 2.20117C1.4618 2.20117 1.8834 2.62287 1.8834 3.14287V26.3427C1.8834 27.2095 2.5861 27.9122 3.4529 27.9122H35.4671C36.3339 27.9122 37.0366 27.2095 37.0366 26.3427V3.14287C37.0366 2.62287 37.4583 2.20117 37.9783 2.20117C38.4984 2.20117 38.9201 2.62287 38.9201 3.14287V26.3427C38.9201 28.2497 37.3741 29.7956 35.4671 29.7956H3.4529C1.5459 29.7956 0 28.2497 0 26.3427V3.14287C0 2.62287 0.4216 2.20117 0.9417 2.20117Z" fill="white"/>
<path fill-rule="evenodd" clip-rule="evenodd" d="M15.038 2.09703C12.6736 1.69143 10.2709 1.69143 7.9065 2.09703L7.0316 2.24713C5.5216 2.50613 4.4029 4.01593 4.4029 5.79463V24.811C9.0143 23.1996 13.9302 23.1996 18.5416 24.811V5.79463C18.5416 4.01593 17.4229 2.50613 15.9129 2.24713L15.038 2.09703ZM7.6825 0.323325C10.1955 -0.107775 12.749 -0.107775 15.262 0.323325L16.137 0.473426C18.4018 0.861926 20.08 3.12663 20.08 5.79463V26.0187C20.08 26.3024 19.9648 26.5694 19.7693 26.7385C19.5738 26.9076 19.3211 26.9589 19.0881 26.8767L18.155 26.5477C13.7974 25.0112 9.1471 25.0112 4.7895 26.5477L3.8564 26.8767C3.6234 26.9589 3.3707 26.9076 3.1752 26.7385C2.9797 26.5694 2.8645 26.3024 2.8645 26.0187V5.79463C2.8645 3.12663 4.5427 0.861926 6.8075 0.473426L7.6825 0.323325Z" fill="white"/>
<path fill-rule="evenodd" clip-rule="evenodd" d="M30.7151 2.09703C28.3507 1.69143 25.948 1.69143 23.5836 2.09703L22.7087 2.24713C21.1987 2.50613 20.0799 4.01593 20.0799 5.79463V24.811C24.6914 23.1996 29.6072 23.1996 34.2187 24.811V5.79463C34.2187 4.01593 33.0999 2.50613 31.59 2.24713L30.7151 2.09703ZM23.3596 0.323325C25.8725 -0.107775 28.4261 -0.107775 30.9391 0.323325L31.814 0.473426C34.0789 0.861926 35.7571 3.12663 35.7571 5.79463V26.0187C35.7571 26.3024 35.6419 26.5694 35.4463 26.7385C35.2508 26.9076 34.9982 26.9589 34.7652 26.8767L33.832 26.5477C29.4745 25.0112 24.8242 25.0112 20.4666 26.5477L19.5335 26.8767C19.3005 26.9589 19.0478 26.9076 18.8523 26.7385C18.6568 26.5694 18.5415 26.3024 18.5415 26.0187V5.79463C18.5415 3.12663 20.2197 0.861926 22.4846 0.473426L23.3596 0.323325Z" fill="white"/>
<path fill-rule="evenodd" clip-rule="evenodd" d="M19.5434 27.9121C20.0634 27.9121 20.4851 28.3337 20.4851 28.8538V33.5133H24.9613C25.4814 33.5133 25.903 33.9349 25.903 34.455C25.903 34.9751 25.4814 35.3967 24.9613 35.3967H13.6607C13.1406 35.3967 12.719 34.9751 12.719 34.455C12.719 33.9349 13.1406 33.5133 13.6607 33.5133H18.6016V28.8538C18.6016 28.3337 19.0233 27.9121 19.5434 27.9121Z" fill="white"/>
</svg>

